<?xml version="1.0" encoding="utf-8"?>
<!-- Generator: Adobe Illustrator 21.1.0, SVG Export Plug-In . SVG Version: 6.00 Build 0)  -->
<svg version="1.1" id="Layer_1" xmlns="http://www.w3.org/2000/svg" xmlns:xlink="http://www.w3.org/1999/xlink" x="0px" y="0px"
	 viewBox="0 0 141.7 336.4" style="enable-background:new 0 0 141.7 336.4;" xml:space="preserve">
<g>
	<g>
		<g>
			<path d="M12.3,291.3c3.4-1.2,5.3-3.9,5.3-7.3c0-5.1-3.9-8.4-10-8.4H0v23.2h3.1v-6.3h4.3c2.3,0,3.3,0.5,5.1,3.3l1.9,3H18l-2.6-3.9
				C14.4,293,13.4,291.9,12.3,291.3z M14.6,283.9c0,3.4-2.6,5.5-6.9,5.5H3.1v-10.9h4.6C11.1,278.5,14.6,279.9,14.6,283.9z"/>
		</g>
		<g>
			<path d="M39.1,275.3c-6.5,0-11.8,5.3-11.8,11.8s5.3,11.8,11.8,11.8s11.8-5.3,11.8-11.8C50.9,280.6,45.6,275.3,39.1,275.3z
				 M39.1,295.9c-4.9,0-8.7-3.8-8.7-8.8s3.8-8.8,8.7-8.8c4.9,0,8.7,3.9,8.7,8.8C47.8,292.1,44,295.9,39.1,295.9z"/>
		</g>
		<g>
			<path d="M72.9,278.3c2.5,0,4.9,1,6.6,2.8l0.2,0.2l2.1-1.9l-0.2-0.2c-2.2-2.5-5.4-3.9-8.7-3.9c-6.5,0-11.8,5.3-11.8,11.8
				s5.3,11.8,11.8,11.8c3.3,0,6.5-1.4,8.7-3.8l0.2-0.2l-2.1-2l-0.2,0.2c-1.7,1.8-4.1,2.8-6.6,2.8c-4.9,0-8.7-3.8-8.7-8.8
				C64.3,282.1,68.1,278.3,72.9,278.3z"/>
		</g>
		<g>
			<path d="M103.3,278.3c2.5,0,4.9,1,6.6,2.8l0.2,0.2l2.1-1.9l-0.2-0.2c-2.2-2.5-5.4-3.9-8.7-3.9c-6.5,0-11.8,5.3-11.8,11.8
				s5.3,11.8,11.8,11.8c3.3,0,6.5-1.4,8.7-3.8l0.2-0.2l-2.1-2l-0.2,0.2c-1.7,1.8-4.1,2.8-6.6,2.8c-4.9,0-8.7-3.8-8.7-8.8
				C94.7,282.1,98.5,278.3,103.3,278.3z"/>
		</g>
		<g>
			<path d="M132.2,275.5h-1.8l-9.6,23.2h3.4l1-2.4v-0.1c0.8-2.2,3.2-3.5,6.5-3.5h4.1l2.4,6h3.4L132.2,275.5z M134.7,289.7h-2.8
				c-1.6,0-3.1,0.2-4.4,0.7l3.8-9.2L134.7,289.7z"/>
		</g>
	</g>
	<g>
		<path d="M109.6,229.4l-1.3-0.4c-17.2-6-31.7-17-40.9-31c-10.3-15.6-13.9-35-9.7-51.9c3-12.2,7.9-22.7,12.3-31.7
			s9.3-19.6,12.3-31.6c4.1-16.4,0.6-35.3-9.5-50.4C64,19.1,50.3,8.6,34.1,2.6V228h-1.9V0l1.3,0.4c17.2,6,31.7,17,40.9,31
			c10.3,15.6,13.9,35,9.7,51.9c-3,12.2-8,22.9-12.4,32c-4.3,8.9-9.1,19.3-12.1,31.3C55.5,163,59,181.9,69.1,197
			c8.8,13.3,22.5,23.8,38.7,29.8V1.3h1.9L109.6,229.4L109.6,229.4z"/>
	</g>
	<g>
		<g>
			<polygon points="13.4,317.8 0,317.8 0,319.5 5.8,319.5 5.8,336.2 7.7,336.2 7.7,319.5 13.4,319.5 			"/>
		</g>
		<g>
			<path d="M31,317.6c-5.2,0-9.4,4.2-9.4,9.4s4.2,9.4,9.4,9.4c5.2,0,9.4-4.2,9.4-9.4S36.2,317.6,31,317.6z M31,334.7
				c-4.3,0-7.6-3.3-7.6-7.7c0-4.3,3.3-7.7,7.6-7.7c4.2,0,7.6,3.4,7.6,7.7C38.6,331.3,35.2,334.7,31,334.7z"/>
		</g>
		<g>
			<polygon points="94.5,319.5 94.5,317.8 82.9,317.8 82.9,336.2 94.5,336.2 94.5,334.5 84.7,334.5 84.7,327.8 93.9,327.8 
				93.9,326.1 84.7,326.1 84.7,319.5 			"/>
		</g>
		<g>
			<path d="M114.9,333.9l1.5,2.3h2.1l-1.8-2.7c-1.1-1.7-2-2.6-3-3.1l-0.3-0.1l0.3-0.1c3-0.9,4.7-3,4.7-5.9c0-4-3.1-6.6-8-6.6h-5.9
				v18.5h1.8V331h3.9C112.4,331,113.3,331.4,114.9,333.9z M106.4,319.5h4.2c2.9,0,6.1,1.3,6.1,4.9c0,3.1-2.3,4.9-6.1,4.9h-4.2V319.5
				z"/>
		</g>
		<g>
			<path d="M141.7,331c0-3.1-1.8-4.7-5.9-5.2l-2-0.3c-2.8-0.4-4.1-1.3-4.1-2.9c0-2.2,2.3-3.4,4.5-3.4h0.3c2,0,4.1,0.9,5.4,2.4
				l1.2-1.1c-1.6-1.9-4-3-6.6-3h-0.3c-3.1,0-6.3,1.8-6.3,5.1c0,2.6,1.8,4.1,5.8,4.6l2,0.2c3,0.4,4.3,1.5,4.3,3.5
				c0,2.2-2,3.7-4.9,3.7h-0.2c-2.9,0-5.2-1.2-6.2-3.3l-1.2,1.1c1.3,2.5,4,3.9,7.4,3.9h0.2C138.9,336.4,141.7,334.1,141.7,331z"/>
		</g>
		<g>
			<polygon points="70.9,317.8 64.8,332.8 60.9,323.3 59.7,323.3 55.8,332.8 49.6,317.8 47.6,317.8 55.3,336.2 56.3,336.2 
				60.3,326.8 64.3,336.2 65.3,336.2 73,317.8 			"/>
		</g>
	</g>
</g>
</svg>
