<svg xmlns="http://www.w3.org/2000/svg" version="1.0" viewBox="0 0 1945.6 1364.8" fill="#000">
  <path d="M794 1c-21 2-29 4-42 13l-7 3a145 145 0 00-45 40 96 96 0 00-19 63 99 99 0 0012 50c1 5 10 19 15 24l7 9 11 11a450 450 0 0128 27l16 18a97 97 0 0111 15c3 0 6 16 5 23-1 4 0 5 1 7l3 2-3 3c-3 2-3 4-1 8l2 5 2 4c2 2 2 2 0 6-2 5-1 6 5 12 5 4 6 4 11 4 6 0 16-3 17-5l4-2c4-2 6-7 4-11v-6l-1-7c-2-3-2-4 0-5 2-2 2-9 0-10v-3c2-3 2-8 1-9l-1-12c1-9 1-11 6-20a107 107 0 0112-21l3-5 4-7 4-7 4-7 11-15a319 319 0 0021-29 88 88 0 0020-41c2-5 3-19 2-34 0-11-1-14-3-21l-4-9c-1-5-13-21-20-28-8-8-21-17-27-20l-14-5c-23-8-38-10-55-8zm24 7l8 1 5 1 5 1c4 0 22 7 30 12 8 4 22 16 27 22 10 13 18 29 19 41 2 13 1 37-2 39l-3 8c-2 10-6 18-14 28a388 388 0 00-25 35 240 240 0 00-27 41l-4 7c-10 20-13 29-12 38l1 5h-10l1-7a371 371 0 0117-89l3-5 4-6 3-5c0-3-3-8-5-8s-3 3-4 9c-2 11-10 20-14 14-2-4-2-10 0-11 3-3 0-11-5-11-3 0-3 1-5 13-1 10-3 17-6 18-2 1-6-2-6-6l-3-5-4-6c-2-4-3-5-5-5-3 0-3 4 0 17a497 497 0 0112 79v17l-3 1c-6 2-6 2-5-3 1-4-1-10-6-19l-4-7-5-6-5-5a289 289 0 00-30-33l-13-11-6-5-1-1v-2l-3-3-3-4a111 111 0 01-27-59c-2-17-1-29 1-41a78 78 0 0117-34l8-9c2-4 12-14 14-14l3-2 15-9 12-7c9-5 23-10 35-11 5 0 20 0 25 2zm-2 183l3 4c3 3 4 4 6 3s2 0 1 2c0 2-1 3-2 3v2l-2 11-9 66-1 6-5 1-5 1v-9a351 351 0 00-11-88c0-1 3 2 4 5 3 5 6 7 8 7 3 0 9-6 10-11 1-4 3-6 3-3zm7 103c3 3 0 5-6 6l-12 2c-9 2-11 2-12 0-2-1 0-4 3-4l5-1 19-4 3 1zm0 13c1 2-1 3-7 4l-14 4c-8 2-9 3-10 1-4-3 2-7 12-8l8-2c4-1 10-1 11 1zm-1 12l1 3c0 2 0 2-4 3h-14c-12 0-13-1-2-5 6-2 9-2 13-2l6 1zm1 12c2 1 2 5 0 6h-5c-4-2-6-2-11-1l-8 3-3-1c-2-1-2-2-1-4l5-3h23z"/>
  <path d="M741 52l-2 2a250 250 0 00-18 39l-5 26a356 356 0 01-1 17c2 0 4-3 8-11 3-7 8-11 14-11l6-2 1-16 1-23c3-15 3-18 0-20-2-3-3-3-4-1zm-2 38c0 13-1 15-5 16l-6 3c-1 2-3 2-3 2l3-20 7-16 3-6 1 5v16zM874 95c-5 1-9 4-12 11-2 5-3 7-2 11 1 5 1 5 6 7 6 3 7 5 6 9-2 4-10 6-15 3-2 0-3-1-2-4s0-3-2-2l-3-1-2-4-5-15-2-10c-1-2-5-5-8-4-2 2-6 14-9 29l-4 15c-1 2-3 3-9 5-8 2-21 5-22 4v-5c0-3 0-4 3-5 7-2 11-2 15-1s4 0 6-2 2-3 1-5c-2-4-7-4-18-1l-10 1-1-5v-5l19-6 6-1c2-1 2-6 0-7-3-1-26 4-32 7-3 1-4 4-2 6l2 8-5-3-11-4c-6-1-7-1-14 1-11 4-11 4-6 16l4 15c2 13 3 14 6 14 4 0 11-5 16-10 4-4 10-15 11-21l1-2 1 3 2 8 2 7 1 3v2c1 2 2 2 3 1 4-3 17-6 22-5 9 1 15-4 17-13 1-4 1-5 4-7 4-2 9-2 12 0l2 5c1 4 2 5 5 7h9c9-1 15-4 20-9 8-8 6-13-5-19-7-3-8-4-8-7 0-2 2-3 4-5 5-3 7-3 10-1 2 2 2 2 2 8-1 6-1 6 1 6 3 0 9-6 9-9 0-5-1-8-4-10-4-3-10-4-15-4zm-36 20c2 5 2 5-2 6l-3 1 1-5c1-8 2-8 4-2zm-72 16c6 2 5 9-1 19-3 4-9 8-11 7-1-2-4-12-4-18v-7l3-1c5-2 9-2 13 0zM729 139c-3 2-4 2-4 5l2 5 2 7 8 26c2 1 5-3 5-6l-2-10c-4-10-6-18-6-22l-1-5h-4zM1498 75c-4 1-5 4-1 7l3 2-1 35a797 797 0 01-3 78l-1 26 3 3 4 2 2-3 2-3h13l13 1a2165 2165 0 00154 0c9 1 10 1 12 4l2 2 1-56a2024 2024 0 011-84c1-3-2-6-7-7l-65-1-73-2-20-1-34-4-5 1zm41 8a789 789 0 00100 4c46 0 54 0 55 2l-2 4-3 3h-11l-29-2c-2-2-104-3-123-1h-9l-3-3-4-6-2-3 9 1 22 1zm-31 9c4 4 5 8 3 23l-3 74c0 15 0 15-3 18l-3 3v-42a475 475 0 003-79l3 3zm134 8l25 2 17 1v18a548 548 0 01-4 71l-1 15h-11a564 564 0 00-80-4 482 482 0 00-75 0v-19l1-35a999 999 0 004-50l64-1 60 2zm55 5v11a3976 3976 0 00-3 97l-4-3-5-4 1-23a283 283 0 013-45v-13l2-16 1-6c-1-1 2-5 3-6l2 8zm-95 105l40 1c32 1 42 2 45 4l1 3h-108a680 680 0 01-73-3l5-4c8-3 25-3 90-1z"/>
  <path d="M1618 129l-17 3-11 3-9 3h-3l-3 1-4 1-6 2-8 3-15 7 10-3a419 419 0 0175-18l4-1h-3l-5-1h-5zM1633 140l-11 1a239 239 0 00-82 23l10-2 10-4 9-4 9-2a168 168 0 0141-7 461 461 0 0140-5h-26zM1627 152c-10 0-22 2-36 4a210 210 0 00-39 13 117 117 0 0118-5l2-1 4-1c19-5 46-9 76-9 14 0 20 0 19-1-3-1-30-2-44 0zM1750 87l-2 21-3 31-2 48a772 772 0 011 45c0 3 3 4 7 2h46l67 2 63 1c10 2 14 0 14-5l-1-2c-2-1-2-3-2-41v-49c2-13 3-38 1-44l-1-4-6-1h-27l-96-2-15-1c-15 0-33-2-36-3-5-3-7-2-8 2zm54 8l35 1c78 1 90 1 90 3s-5 6-9 8a659 659 0 00-64-2l-16-2a747 747 0 00-74-3c-3-1-7-5-7-6l45 1zm-43 17l-2 19c-3 18-4 24-4 48 0 27 0 36-3 39l-2 1a902 902 0 014-115v-4l4 4c3 3 3 4 3 8zm173 1v12c-2 14-2 29-2 60 1 32 0 38-2 38l-2-3-3-4v-4l1-45 1-47c0-6 1-6 3-7s3-4 1-4l-1-1c0-1 3-5 4-4v9zm-101-5a1254 1254 0 0087 8 1534 1534 0 01-2 98l-1 5-20-1c-36-1-47-2-71-5l-37-1h-28v-26c1-40 1-45 4-59l2-11 2-9c1-1 60 0 64 1zm-21 109a1454 1454 0 0163 6h29c16 0 19 1 22 6l1 2h-13a3505 3505 0 00-111-3 534 534 0 00-51-1l4-5c3-4 4-4 9-5h47z"/>
  <path d="M1858 121l4 10c5 11 14 18 23 17 6-1 6-2-1-3-10-2-18-11-21-22-2-5-5-6-5-2z"/>
  <path d="M1842 121v2l2 18a272 272 0 003 23c-1 1 4 5 8 6h20c15 0 15 0 21 3l9 8c6 7 7 9 9 8l-5-10c-4-6-6-8-10-10-6-3-9-4-26-4-15 0-19-1-21-4-2-2-2-7-3-22l-2-14c-1-4-4-6-5-4z"/>
  <path d="M1850 123l2 12c1 10 4 14 7 16l26 8 7 1c5 1 2-1-3-3-11-3-25-9-29-12-3-2-4-3-5-10-2-13-2-14-4-14-1-1-2 0-1 2zM1274 94c-12 2-36 11-47 17l-24 18c-5 5-12 18-15 25a260 260 0 01-10 31l-2 7c-2 5-4 21-4 31 0 19 3 35 11 62 3 8 3 9 7 13l3 4 4 6 5 7c1 2 9 7 27 20 14 9 30 13 60 15 19 1 35-2 56-10a1085 1085 0 0131-14l11-6c6-5 16-15 20-23l9-12 6-10 4-10c6-14 8-26 8-48 0-12-1-25-4-30-1-4-3-9-2-10l-1-5-2-6-3-7-5-8c-1-4-16-19-26-28a180 180 0 00-32-18l-26-9c-19-4-45-5-59-2zm30 21a105 105 0 0134 9 76 76 0 0112 4l13 7 5 4c5 3 8 7 8 8l2 4c4 3 13 17 20 30 11 21 13 28 13 40l1 8-3 22c-2 6-6 15-13 26l-7 11-6 7-7 6-9 7c-10 8-21 12-33 14l-19 4c-6 2-9 3-24 2l-20-1a113 113 0 01-28-11l-15-7c-4-3-9-8-13-14l-5-6-10-21-2-12v-56l1-11c0-6 1-10 5-17l3-8 2-3 4-6c3-6 15-20 18-20l5-2 8-4 8-4c14-7 32-12 40-11l12 1z"/>
  <path d="M1301 165a1788 1788 0 011 82c-1 1 2 5 4 5l3-1 20-11a76 76 0 0025-13l-3-1c-4-1-6 0-22 8l-19 9a1234 1234 0 00-5-84c-4-3-5-2-4 6zm49 62l-3 2-3 1 6-3c0-1 0 0 0 0zM1491 270v8a1553 1553 0 01-3 168 234 234 0 01-1 38 466 466 0 01-2 48 1119 1119 0 01-3 75h5a548 548 0 0176 1l35 2a1216 1216 0 0098-1c-2-1-2-2-2-10l1-15v-7l1-36a4433 4433 0 001-160 1644 1644 0 004-102v-2a2212 2212 0 01-126-6 2904 2904 0 01-84-1zm62 5a1647 1647 0 01138 5c1 1-2 6-5 9l-4 4-25-1a431 431 0 01-63-4l-27-1h-54c-2 0-3 0-4-3l-5-6-3-4h12l40 1zm-50 9l4 5-1 11-1 13c-1 5-3 69-3 107a1422 1422 0 01-4 134c0 28-1 31-5 36l-5 3 1-33a2240 2240 0 004-119l2-85a1500 1500 0 013-77l5 5zm60 7a781 781 0 0196 6l21 1v6l-1 138v35a560 560 0 01-2 68l-1 29v15h-5c-1 2-18 2-31 0a488 488 0 00-60-2 1291 1291 0 00-75-4c0-1 0-2-2-2-3 0-3 0-2-2 2-2 3-28 2-48l1-16a742 742 0 003-87v-29-5l1-20a1032 1032 0 003-70l1-12v-2h8l43 1zm131 41a4907 4907 0 00-3 213l-1 25c0 19-1 27-2 27l-5-4c-4-3-4-4-3-7l2-34 1-29 1-63 2-161 3-3 2-2 1-3c1-2 2 29 2 41zm-130 259l41 2a555 555 0 0154 3c17 0 19 1 22 5l2 3-5 2-84-1a1228 1228 0 00-105-4l7-9 3-3 20 1 45 1z"/>
  <path d="M1566 304l-1 4-1 7-4 10a521 521 0 01-21 52 499 499 0 0029-71c0-3-1-4-2-2zM1574 338l-2 4a567 567 0 01-34 67l8-13 2-5c14-20 27-46 28-52s0-6-2-1zM1571 387a384 384 0 01-29 42 558 558 0 01-3 9l9-14c17-23 28-42 27-43l-4 6zM1650 437l-13 15-13 15a442 442 0 00-24 29 347 347 0 00-32 46 610 610 0 0026-35l7-9 16-19 11-13 18-20c11-11 13-15 11-15l-7 6zM1608 441c-5 5-11 11-12 14l-20 27a554 554 0 0024-28l10-12c4-4 2-5-2-1zM1663 451a669 669 0 00-53 63l13-14a525 525 0 0147-54l-7 5zM1564 547l-1 3 2-2c2-4 1-5-1-1zM1745 277l-3 1c-1-2-4-2-5 1-2 2-2 3 0 8a3497 3497 0 003 163l19 1c22 1 25 1 43-1a974 974 0 01141 1c2-2 2-2 2-5l-1-5c2-22 2-85 1-127l-1-28-5-2a728 728 0 01-91-3 1065 1065 0 01-95-5l-8 1zm58 8l27 1c22 0 103 4 103 5 0 2-7 7-8 7l-15-1a5541 5541 0 01-160-10c-2-2-2-2 4-3 7-2 30-1 49 1zm-54 9l4 7-1 52a494 494 0 002 71c0 7 0 8-2 11-3 3-5 2-5-2l-1-7-2-136 5 4zm85 4a2121 2121 0 0191 5l3 1v51l1 62-1 12a926 926 0 01-146-2l-21 1c-1-1-2-1-2-4a339 339 0 01-2-40l1-88c1-1 57 1 76 2zm105 14l1 27a1406 1406 0 01-1 89c0 4-1 5-2 2l-2-4v-13l-1-18a450 450 0 012-98c1-4 2 0 3 15zm-126 121c21 2 42 3 74 3h46l2 4 2 5-29-1a777 777 0 00-121 2c-8 1-16 1-31-1l-6-1 4-4c2-3 5-5 9-6 11-3 14-3 50-1z"/>
  <path d="M1783 307c-1 2 3 5 8 8 7 3 15 9 18 13s7 12 5 12l-1-1c0-3-25-24-32-26-4-2-7-1-4 1l3 1 20 15a502 502 0 0018 23c6 7 24 21 34 25a322 322 0 0030 10c2 0-4-4-8-5l-8-3-10-4c-13-6-30-18-35-25l-4-6c-3-4 0-3 3 0 8 10 20 19 35 25 6 2 7 0 1-2l-14-9c-12-8-21-17-26-27-2-4-5-9-8-11-4-4-3-5 2-2s11 10 14 16c5 7 8 11 13 15a296 296 0 0032 15l-5-3-6-3-13-8c-9-6-10-7-16-16-7-11-12-16-18-19-4-2-6-3-9-2-3 0-5 0-10-4-6-4-8-4-9-3zM558 311c-1 3-1 6 1 7l3 4a588 588 0 01-7 97c-1 21-2 32-4 33l-15 2a786 786 0 01-56-2l5-4c11-12 11-12 11-16s-4-13-10-20l-8-11-5-7a378 378 0 00-15-19l-3-6-1-3-2-2-2-4c-2-3-4-4-7-4l-4-2c0-2-5 0-7 3l-7 8-5 5 1-18c1-18 0-28-3-29h-23c-4 2-7 6-7 11v3h-8c-6 0-10 1-10 2-2 1-2 0-3-5 0-2-2-3-5-5-5-3-5-3-21-3-22 0-21 0-21-4 0-6-1-7-6-9-6-3-11-3-21-1-9 3-10 4-10 16l-1 11-1 25-1 26c-1 4-1 4-3 2-1-2-4-2-13-2h-14c-2 2-4 7-3 9 1 1 2 5 1 13v19a474 474 0 010 56c1 3 5 5 10 3l11-1c18 1 116-2 144-4a2778 2778 0 01206 2c26 0 40 1 42 2 1 1 27-2 29-3 4-2 5-4 6-12l1-12a963 963 0 003-74l-17 1c-5 1-6 0-7-1h-3l-4 1-1-28c1-32 0-43-2-46-3-4-7-4-18-3-14 1-30 1-31-1l-4-1-11 1-22 2c-13 1-14 1-17-1-4-3-4-3-5-1zm-247 8c3 2 4 6 3 19l-2 25-2 30c0 22 1 21-8 24-5 2-11 2-15 0-3-1-3-1-3-12 0-25 4-81 6-83l4-2 5-1h12zm302 2l-1 14a955 955 0 00-4 66c-3 41-3 49-1 48 2 0 2-5 3-23a616 616 0 014-49c1-36 3-55 5-56l11-1 18-1c9-1 9-1 12 2l3 2-2 25-2 45c0 23-2 46-4 58 0 1-35 1-36-1l-3 1-21 1a390 390 0 00-35 1c-3-1-4-1-3-3l1-6 2-29 2-20 3-35 1-19v-11c0-9 0-10 3-10l35-1 8-1 1 3zm-197 12a168 168 0 01-3 50l1 22c0 23 1 21-11 21-11 0-12 0-9-26a492 492 0 002-68c1-1 4-2 10-1 7 0 9 0 10 2zm-69 4l7 3 6 2h4c1 2 1 65-1 69 0 2-2 3-6 4-9 3-14 4-27 5-10 0-11 0-11-2a254 254 0 012-77c1-2 14-5 19-4h7zm96 28l2 2-3 3c-8 3-13 7-16 9-3 3-3 3-4 1-2-1-2-2 6-10l10-8 5 3zm11 16l5 5 8 10c5 9 13 18 15 20 3 2 8 13 8 16s-4 7-10 13c-3 2-5 2-8 2s-4 0-8-4l-5-9-4-6c-2-1-4-3-4-5l-9-14-3-4-1-2-2-3-3-4c-3-2 3-11 11-14l6-3c3-1 3-1 4 2zm-27 17a362 362 0 0137 55l-20 1a699 699 0 00-31-1c3 0 6-10 6-23v-39c1-2 0-2 8 7zm-148 15l-1 18v-11a504 504 0 001-7zm395 10c0 3-2 12-3 10-1-1 1-14 1-14l2 4zm13 4l-8 11c-1-1 4-9 7-12 2-3 3-3 1 1zm-377 4c0 4-2 5-11 7l-11-1c-4-1-4-2-4-5v-3h17l7-1c2-1 2 0 2 3zm51 4v5l-3 1-6 2c-2 2-11 5-16 5l-9-1c-4-1-5-2-7-5v-12l6 1c7 1 25 0 31-2 4-1 5-1 5 1l-1 5zm329 6l-4 4 3-7c3-6 4-7 4-5l-3 8zm-277 0c0 2 0 2-3 3-4 2-16 2-16 0l-1-1c-2 0-3-1-2-3 0-2 2-2 11-2h11v3zm-34-1l6-1c1-1 2 1 0 4 0 2 0 2-1 0-2-2-2-2-2 0 0 3-3 4-9 4-5 0-8-2-8-5s1-4 6-3l8 1zm297 9c-2 4-5 6-5 4l7-9-2 5zm-398 0c0 3 0 3-1 1v-4c1-1 1-1 1 3zm19-1l11-1c2 0 3 4 1 6-2 1-11 3-13 2l-5-1c-6-1-8-2-8-5 0-2 1-3 3-2l11 1zm395 3c0 1-1 4-5 7-5 5-6 5-1-2l4-6c1-2 2-2 2 1zm-366 1c1 2 1 2-1 2l-4-2c-2-2 3-2 5 0zm64 1c1 1 1 1-2 1-2 0-4 0-3-1h5zm292 4l-3 2 1-2 2-4h1l-1 4zm-318-2l4 1-5 1c-8 1-9 0-2-3l3 1zm245 2c0 1-7 6-9 6l2-3c2-3 6-5 7-3zm-24 2l-4 1-5 3c-4 4-19 12-19 11-1-1 10-12 11-12l3-1c2-3 4-3 11-3 4-1 5 0 3 1zm39-1l-2 4-20 10 11-10 4-2c3-3 6-3 7-2zm22 0l3 1-3 2-4 2v-3c-1-2-5-1-9 2l-4 2 1-3v-3h16zm-101 1l-1 2-2-1 2-2 1 1zm18 1l-20 10 2-2 6-5c3-4 4-4 8-4 3-1 4 0 4 1zm-113 4l-5 2 3-4c2-2 3-2 5-1 1 1 1 1-3 3zm84-3l-4 1-5 3c-5 4-11 7-11 6-1-1 8-8 10-8 1 0 2 0 2-2 1-1 2-2 6-2 4 1 4 1 2 2zm127-1c2 1 1 2-2 4l-4 3-9 4c-8 5-11 5-7 2l6-5 14-8h2zm-268 2l-11 6 2-2 3-3c-1-2 1-2 4-2 2-1 2 0 2 1zm14-1c0 2-14 12-18 12-1 0 6-6 9-7l2-3c1-2 2-3 4-3l3 1zm17 0l-5 5a335 335 0 00-13 6c0-1 3-4 7-6l2-3c0-1 1-2 3-2h6zm13 1l-2 1c-1-1 0-3 2-3s2 1 0 2zm36-1c0 2-11 8-13 7l3-4c3-3 4-4 7-4l3 1zm16 1l-4 3-10 5c-5 3-7 3-3 0l7-6 7-3 3 1zm14-1c-1 2-10 8-13 9-2 1-2 0 0-1 1-2 2-3 4-3l2-3c1-2 2-3 4-3l3 1zm14 0l-8 4 2-2 6-2zm-137 1c-1 2-12 8-12 7l1-1 4-4c1-2 2-3 4-3l3 1zm213 1c0 1-3 5-7 8l-6 7c0 3 5 1 11-4 7-5 10-6 4-1-4 4-4 7 1 6l13-5-4 4-5 4-21-1-23-1 3-3 5-2c-1 5 2 4 11-2l19-12-1 2zm-228 0l-12 8c-4 2-3 0 0-2l4-4c1-2 2-3 5-3l3 1zm-85 2l-3 1c-2-1-4 0-5 1-3 2-5 1-2-2 2-2 12-3 10 0zm70-1l-11 7c-2 2-2 2-1 0l5-3 2-3c0-1 1-2 3-2l2 1zm-37 1l-4 4-4 2 2-3c2-3 6-5 6-3zm12 0v1l-2 1c-1 1-2 0-1-1 1-2 2-2 3-1zm106 1c-4 3-6 4-3 1l4-3-1 2zm259 1c0 3 0 3-2 4-3 0-3 0-1-4 3-3 3-3 3 0zm-64-1l-4 3-4 3 3-4 5-2zm-189 1l-3 5-5 5c-1 2-6 3-20 3-4 0-5 0-3-1l2-2 3-1c2-1 2-1 3 1 0 4 4 3 11-2 9-8 12-10 12-8zm17 1l-4 4c-2 3-2 4-1 6 1 1 1 1-6 1-8 0-9-1-5-3l5-3 11-7v2zm83 3c-5 4-6 6-3 7 3 2 0 2-7 2l-6-1 5-3 5-4 4-2c6-4 6-3 2 1zm19-3v2c-2 0-7 7-6 8l-7 1h-7l2-2 3-2 7-3c7-5 8-5 8-4zm-61 3l-1 2c-1 1-1 3 1 4l5-1c4-3 4-3 3-1v3l-11 1h-11l5-3 6-4c2-2 3-2 3-1zm136 5l-5 6-9-1h-9l5-3c4-2 5-2 6-1s2 0 6-1l5-3 2-1 3-2c1 0 0 3-4 6zm-169-2l-2 4-4 1h-4l5-4c6-4 8-4 5-1zm-63-1l-2 4c-2 3-3 3-7 4-4 0-7 0-4-1l6-4 7-3zm-133 5l-7 5c-3 0-2-1 2-4 10-7 13-7 5-1zm211-2c0 3 0 3-5 3s-5 0 0-3 5-3 5 0zm-98 2c0 3 0 3-5 3h-5l9-6 1 3zm136-1c0 2 0 2-3 2-4 0-4 0 0-2 3-2 3-2 3 0zm129 1c-1 2-3 2-5 2h-2l8-5-1 3zm12 0c0 2 2 3 7 0l5-1v3c-1 3-1 3-15 1l-4-1 3-2c3-2 4-2 4 0zm-318 1c0 2-1 2-2 3-4 0-5 0-2-3 3-2 4-2 4 0zm25 1l-3 2c-4 0-4-1-1-3 3-1 4-1 4 1zm-76 1c0 2-2 2-3 2-2 0-3 0-1-1 1-2 5-4 5-3l-1 2zm25 0c0 1-3 3-4 2l2-2c2-2 2-2 2 0zm10 2h-2c-2-1-2-1 0-2h2v2zm360-2l-2 1c-2 0-2 0-1-1h3z"/>
  <path d="M645 328c-1 2-7 2-16 3-5 0-6 0-7 2-1 3-1 3 1 6s2 4 1 22l-1 26c-2 9-1 10 3 9l10-1 9-1c2 0 3-1 3-2l1-12 3-45c0-1-3-8-5-8l-2 1zm-2 10l4 2-1 12a861 861 0 00-3 34c-2 2-2 2-9 2h-7v-5c0-5 0-6 3-5h10l1-3c0-3 0-3-5-2l-7 1-1-4c-1-4 0-6 2-4l5 2c5 1 7-1 7-4s-2-5-3-4l-4 2-5 1-1-6v-7l5 2c6 1 7 1 7-3 0-3-1-3-10-3-2 0-2-1-2-5 0-3 7-4 14-3zM579 332l-6 2-1 8a330 330 0 01-1 47l1 3h5l10 1c4 1 4 0 6-3l1-5 1-16 1-25c0-10 0-12-2-13s-10-1-15 1zm11 6c2 1 2 3-1 3l-3 2-2 1-4 2c-1 2-3 2-3 2-2 0 1-7 3-9s7-2 10-1zm2 10l-1 13-1 10h-6c-7 1-9 0-9-3 0-2 7-4 9-4s3 0 4-2c3-5-3-7-9-3-3 2-3 2-3-3 0-4 1-5 3-5 7 0 9 0 10-2 2-3 4-3 3-1zm-3 34c-1 4-3 4-9 3-3-1-4-1-4-4s0-4 6-3h6c2-2 3 0 1 4zM578 404c-6 3-11 14-11 23 0 5 0 6 3 10 4 5 11 9 15 9s10-5 13-10c2-4 3-6 3-12 0-10-4-17-12-21-4-2-6-2-11 1zm9 6l3 1c3 0 6 7 6 13 0 7-2 12-6 14-3 2-4 2-8 0-6-2-10-7-10-13 0-5 3-13 6-14 2-2 8-2 9-1zM628 407c-6 3-12 16-11 24 0 7 6 14 15 16 6 1 12-3 14-10 2-6 2-17 0-22-4-7-12-10-18-8zm10 7c5 4 7 13 3 21-3 7-9 7-15 1-5-5-6-9-2-16l2-4c1-3 2-4 6-4l6 2zM1008 344l-14 15-2 1-5-2c-4-1-5 0-8 2-2 3-3 3-4 3-1-1-2-1-3 1-2 2-3 2-4 0l-1 2c-1 3-1 3-4 3-4-1-7 2-7 8-1 5-1 5-5 5h-6c-3-1-5-5-4-9l1-3 2 2c3 3 6 3 10-1 4-3 4-7 1-9l-1-4c1-4-2-4-11 0-2 1-4 3-6 7s-3 6-2 10l1 5-7 1c-8 1-11 2-13 6l-3 2c-2 0-5 3-6 6 0 2-1 3-2 3-3 0-4 8-1 13 1 3 6 5 8 4s2-3-1-4c-2-2-2-2-1-6l2-7c1-2 3-2 3-1l3 4c2 2 2 3 2 10v8l-4 2c-8 4-11 11-7 19 1 3 7 8 9 8l1 2 1 13c0 13 1 17 2 23 1 3 0 3-3 4-8 3-11 8-11 19 0 7 2 12 8 22l2 5 1 2 1 9 1 7 2 8c1 12 3 17 13 24 3 3 4 6 2 8v33l-4 1-6 2-6-1c-3-1-3-1-6 2l-7 4-23 5c-3 2-15 4-18 4l-6 2c-6 4-14 6-20 6a3669 3669 0 01-45 0c-4 4-5 7-3 11l5 27c1 10 1 16-2 25a555 555 0 00-11 39l-7 18-4 11-4 12-4 12c-3 7-3 19 0 24l1 2-11 1-23 1h-11l1-3 2-8 2-8a365 365 0 0112-33c2-2 3-16 1-19-1-2-5-6-8-6l-4-1-8-2-7-1 3-5c4-5 4-10 1-13-1-3-2-4-1-9 0-8-1-9-4-3s-3 7-1 12c3 5 3 8 0 10l-3 4c0 4-1 5-6 4-4-1-5-1-5-3-1-3-3-3-4 0-1 1-2 2-9 2-6 0-8 1-10 2l-4 2-4 4-2 6 1 6c0 3 0 4-1 3-4-1-9 0-13 2l-4 3 1 7c0 8 3 14 15 35l5 9h-4a689 689 0 00-67-4l-7-1v-4c1-6-2-19-7-27l-7-6c-2-1-6-4-6-6-2-3-4-4-3-1 0 2 0 2-2 0l-6-4c-1-1-3-3-5-3s-3-1-6-10a515 515 0 00-19-44 512 512 0 00-32-64c-1-2 0-3 2-3l8-6 17-11 8-5 11-7a515 515 0 0056-35l6 21 5 17 2 9c-1 2 1 7 4 8 2 0 10-1 14-3l3-2 6-3 5-3s5-1 9-4c33-16 36-17 48-29a58 58 0 019-8c1-8 1-9-1-11l-10-9a218 218 0 00-20-18 225 225 0 00-28-23l-11-7-11-9-3-2h-2c0-2-15-11-19-12-4-2-10-1-15 2-7 4-10 13-7 21l3 9 4 20c3 12 3 11 0 11l-6 3-13 9c-7 4-34 22-45 31l-8 5-10 8c-6 6-20 15-27 19l-6 6-8 6c-5 3-6 5-6 7-1 2 0 3 2 5l4 5c1 3 2 3 5 4 3 0 3 0 10 14l5 10 5 10 4 9a901 901 0 0131 63c1 1-2 3-5 6a141 141 0 00-25 26c-3 2-12 21-14 29-1 4-2 8-1 11l-1 6-6 8-6 9-3 7-5 8v8l2 6c2 3 8 6 11 6l1 2c0 4 12 0 13-4l5-11 3-5 7-10c3-3 4-5 4-7l1-5c1-3-10-14-14-15l-4-1 2-6 2-10 5-12c4-8 14-20 19-22l7-3c6-2 10-3 12-1l5 14-1 3v4c2 10 2 12 0 13l-5 4-4 3 1 10v9h3c4-1 7 0 7 3s3 8 6 12l3 2-4 2-5 3c-1 2-3 2-5-1l-6-5-3-4-4-1c-5 1-9 3-9 5l1 3c1 0-4 12-7 15l-6 9-6 10c-2 3-2 4 1 4l3 5c1 5 4 8 5 7l4 2c5 4 7 4 12 1 3-2 5-4 7-8l4-7 2-2 5-6c5-6 7-11 7-16 0-3 1-3 5-5l6-3 5-3 6-3c1 0 5-4 5-6l1-2c2 0 2 0 0 22l-1 41-1 43a1474 1474 0 01-5 92c-1 3-2 3-7 2l-37-2a1117 1117 0 01-83 2l-9 1h-15l-29 1a780 780 0 00-76 3 312 312 0 00-108 29c-9 4-24 17-29 23l-6 7-9 17-3 6-4 10-1 7a269 269 0 005 65l5 12c2 7 8 18 12 24a154 154 0 0028 24c4 3 8 6 10 6l5 3 6 3 6 3 8 3 12 4 12 3 32 6c9 2 20 3 46 4l35 2a2967 2967 0 0051 2l45 2 44 1 37 1a516 516 0 0076-1c13 0 24-1 25-2h30c16 0 37 0 44 2h23c37 0 58 1 69 3a1072 1072 0 0076 3 996 996 0 0088 3 2177 2177 0 0095 3 390 390 0 0151 2 505 505 0 0144 2h31c1 2 6 2 9 1l4-1 15 1 28 3a3149 3149 0 00233 2l24-1a6754 6754 0 0178-1 261 261 0 0089-15 608 608 0 0125-10c11-5 21-17 26-28a930 930 0 0115-35l1-5 3-11 2-14c2-7 1-33-1-40l-4-13-7-23a280 280 0 00-18-36 190 190 0 00-26-23 140 140 0 00-39-12l1-11 3-12a612 612 0 017-50l1-17a327 327 0 004-39 279 279 0 012-26l1-24a1317 1317 0 004-98 281 281 0 00-7-82c-3-7-4-9-8-13l-13-8c-8-3-10-4-24-5-18-2-32-2-60 1-30 4-63 5-77 4l-22-2a541 541 0 01-94-19l-26-1c-27 0-27 0-43 6-5 2-7 4-11 10-4 4-8 11-11 18-5 11-6 12-7 10l-4-2c-1-1-1-1 1-5 3-4 2-7-3-7-3 0-4 1-4 3 0 4-2 8-5 8l-2-1-2-3c-2-2-2-2-1-6l3-7 2-6c1-4 1-4 6-5l8-2c4 0 6-2 5-5-2-3-5-3-8-1l-5 2-4 1 1-4 1-10v-5l4-1 4-3c1-3-3-5-7-4-2 2-2 2-4-2 0-3 0-4 2-5h6l5-1c2-3 2-5-3-6-5-2-5-2-6 0 0 2-1 2-3 2l-3 1-2-2-2-4-2-4c-1-2-1-3-3-3l-6-2c-2-2-3-3-2-5 1-5 0-7-4-7-3 0-4 1-4 3l-1 1-6-2-6-1 1-4c1-3 0-4-2-4-4-1-6 0-6 2l1 4-6 4-10 6c-2 3-5 4-5 4l-5-3-6-4c-2 0-1 6 3 10 3 4 4 6 3 7l-2 6c-2 8-4 15-5 28 0 2 0 2-9 1-8 0-9 0-10 2-2 3 1 4 10 4l9 1 1 7v7h-4c-4 0-4 0-4 3s0 3 5 3c5 1 5 0 6 13v6l-4 1-12-1c-4-1-7 1-6 4s2 3 13 2c12-1 12-1 12 1l3 6 3 7 3 5 2 3h-3c-5-1-13-1-15 1-2 1-4 4-5 7-2 5-3 7-3 15l1 15 1 8c-1 1 0 5 3 19 1 4 1 4-4 5-4 1-4 3-1 10l2 8-7 1-8-1s0-3 2-5c2-4 2-6 2-11l-3-9-2-6-1-2-1-6-2-6-2-6-2-4-1-5a801 801 0 01-19-62l-6-19-2-6c0-3 2-19 4-25s3-14 1-14l-1-1c0-2-1-2-35-4l-8-2-4-2c-2 0-3-1-3-2l-5-2-9-4c-4-2-15-6-29-9l-8-3h-2l-3-1-7-2-4-3-3-3-3-2c-1-3-2-31 0-33h1l8-4 4-4c5-4 13-15 15-21l3-17c1-11 1-12 3-13l7-9c8-16 10-23 7-29-2-5-3-6-9-6h-4l3-6c4-8 7-24 7-33 0-4 1-5 4-7 4-4 4-7 1-13-2-4-2-5-1-6 3-2 4-6 4-10-1-8-5-11-12-10-4 0-5 0-5-3l-3-6c-2-4-1-5 2-3 3 1 3 2 3 4-2 6 0 6 3 1 3-4 3-10 0-12l-2-3-2-3c-3-3-10-3-15-1s-5 2-4-2c0-5-3-10-8-14-3-3-4-3-7-3-4 1-7 3-8 6s-2 2-3-2l-3-4c-3-2-3-3-1-5 2-4 3-4 5-2l6 2c2 1 4 0 5-1 3-3 3-8 0-10-2-2-3-3-2-5l-1-3-5 2zm-34 26l-2 3c-1-1 3-8 4-8l-2 5zm-35 19c2 2 2 2 0 1l-5-1c-4 0-4 0-2-1 4-1 6-1 7 1zm-13 22l-1 2-1-2 1-3 1 3zm96 43l1 5c0 2 1 4 4 7 4 4 4 5-2 9-3 1-4 2-4 6 0 6-1 7-6 6-3-1-4 0-8 3l-7 6-3 2c0 2 7 1 9 0 4-3 11-2 16 0 8 4 14 4 14-1l1-3 1 2 2 3-2 3c-3 3-4 4-8 3l-29-2-18-2c-5-1-7-2-9-1h-2v-1c2-2 0-6-5-10-3-2-6-4-6-6-2-3-5-4-12-4-5-1-6 0-7 2l-5 2c-1-1-3 0-3 1-2 2-2 2-2 0s1-3 2-3c2 0 2-2 2-9l-1-6c-2-1 0-8 2-8 4 0 9 9 6 11-1 1 1 4 4 6 2 1 3 0 4-1 2-2 3-4 4-13 0-2 2-4 4-5l1 3c0 3 3 3 4 0 1-2 2-2 9-2 7 1 7 0 10-2l2-3 4 2c4 3 9 2 13-1l5-1c9 2 10 2 11 0 2-2 4-1 4 2zm19 6l-2 1v-6c1-1 3 3 2 5zm-4 19c-3 3-8 4-9 2s0-3 5-5l4-2c1-1 1 0 1 1l-1 4zm-1 7l1 2c4 2 3 4-2 4-5-1-6-2-3-4l2-3 1-1 1 2zm-101 2c0 1 5 3 13 2l10 1c1 2 3 2 3 2l1 2 1 3-12 1-14-2c-4-1-6-11-3-11l1 2zm-6 16l-1 11c-1 6 1 13 3 16 3 3 15 6 26 6 10 0 10 0 13-3 4-4 6-8 6-14 0-5 0-6 3-6 4 0 5 2 5 8l2 12 2 13v7h-5l-9-1-5-2c-1 0-2 1-1 3 0 4 8 8 18 8l8 1 2-4c3-4 3-4 1-6l-3-9-1-4c-1-3-1-3 2-2 14 3 20 3 27 3 13-1 14-2 15-18l1-10 3-3c1-2 2-3 4-2l4-1c2-1 2-1 3 2l-1 7c-2 7-7 15-9 15-1 0-5 15-6 23l-4 19-3 6c-2 3-9 9-15 11l-8 4a125 125 0 01-16 6l-9 2c-8 2-8 2-11-1l-4-3-6-4-16-13-12-8-2-8-3-12-1-7v-4c2-1 2-12 0-12l-2-3-2-3-4-7c-4-8-4-13-1-17 2-2 3-2 7-2h6l-1 6zm39 3c1 1 2 12 1 16l-3 6c-2 2-3 2-8 2-7 0-16-2-19-3l-2-2v-20l31 1zm-355 6a221 221 0 0125 17l28 22a607 607 0 0135 34l-16 8c-12 6-16 7-18 7-2-1-4 0-7 4-3 2-6 5-8 5a288 288 0 00-31 21l-4 2-1-4-3-12-2-8-5-23-1-4-3-10-3-9c-3-5-7-25-8-38-1-7 2-14 6-15l4-1 12 4zm413-1l5 1-1 6-1 9c-1 6-3 7-10 7s-15-2-19-3c-2-1-3-2-3-6 0-6 2-13 3-14 2-2 16-2 26 0zm-433 66l-8 5-10 6a783 783 0 01-38 24 106 106 0 01-20 12l1-1 2-2a137 137 0 0124-18 390 390 0 0149-31l2-3 1 3c1 1 0 2-3 5zm3 8l-8 5-6 4c-1 2-3 2-3 2l-3 2c-1 2-20 14-31 20-26 14-23 12 27-20 3-3 8-5 10-6l6-4 3-2s2 0 3-2c4-3 5-2 2 1zm353 10l6 5c4 2 6 4 6 5l13 5c7 2 7 2 11 0l6-4 4-2 6-1 5-1-1 7v19c-1 7-1 8-5 11a485 485 0 00-16 10c-7 3-9 4-11 3l-3-1c-4 1-17-7-17-10l-1-2-6-4c-3-3-4-4-3-8l1-21v-15l3 2 2 2zm-255 4l-14 10c-7 4-10 6-8 3l1-4c0-2 1-3 7-6l7-3c4-3 12-6 13-6l-6 6zm-43 26l-21 9c-2 0-2-2 0-2l5-3c4-3 7-4 12-4h4zm284 13l-2 2-4-1-2-3h4c3 0 4 1 4 2zm-15 6c0 1 1 2 3 2l5 3c5 4 8 5 10 5l4 2c4 1 3 1-9 1a203 203 0 01-28-2l-13-1-18-2-6-1 6-1 6-3 3-1 6-1 12-3a1046 1046 0 0017-1l2 3zm20-2c1 4-1 5-6 2l5-4 1 2zm71 1h-1l-1-2c1-1 2 0 2 2zm19 5a795 795 0 0046 16h-23a697 697 0 00-54-3l6-4 6-3c0-1 1-2 3-2l4-5 2-3 10 4zm-25-1v1c-1 1-4-1-4-2s3-1 4 1zm217 2c0 2 0 2-3 1-2-1-3-2-2-3 3-1 5-1 5 2zm14-1l4 3-4 8c-1 0-1 5 1 6l3 2c2 0 3 0 3-2 2-5 11-7 11-3l2 2c2 1 0 2-3 2-5 0-7 2-6 4 0 3 3 4 6 3l5-2c2 0 2 0 4 4l1 5-2 2-4 2c-2 1-7 5-6 6 2 3 5 2 8 0 5-4 6-2 3 10 0 3-1 4-6 6-6 2-7 3-6 5 0 2 4 2 8 1l3-2-1 4c-1 5-6 15-7 15l-5-1c-4-1-7-1-7 1s4 4 7 5l3 1-5 11-2 5c0 2 1 3 4 2l8-3 11-7v4l1 3v2c-2 2-1 4 4 7l4 3c0 2-3 6-7 8-4 1-5 2-22 1l-26-1c-7 0-7 0-8-2l-5-12c-5-11-5-11 0-11 4 0 5 0 5-3s0-3-6-3h-6l-1-5-1-9c-1-4-1-4 2-3 4 1 6-1 5-5 0-2-1-2-4-2-5 0-4 1-6-10l-1-3h5l6-2c1-3-2-5-6-4l-4 1v-5l2-5 9-1 10-1c2-1 2-5 0-8-2-2-12-8-15-8-2 0-3 0-2-2 1-3 1-3 3-1 4 2 5-1 4-5s-1-5 1-7 3-2 6 0l5 4c3 3 4 3 8 1 3-2 3-2 3-7v-6l6 2zm-286 2c2 2 2 2 0 4 0 1-1 1-4-2l-3-4c1-1 5 0 7 2zm49 2c0 1 0 2-2 2h-4v-3c2-1 6 0 6 1zm-37 5c2 1 1 1-3 1-5 0-6 0-3-2 1-2 4-1 6 1zm27 2c-2 1-4-1-4-3h3c2 2 2 2 1 3zm-8 0c1 1 1 1-3 1-3 0-5-1-2-2 2-1 4-1 5 1zm-488 2l1 3c0 2 0 2-1 0-2-2-2-4-1-4l1 1zm338 1l48 3a3863 3863 0 01104 7c14 1 15 1 7 4-10 4-22 10-28 16s-6 6-7 12c-1 7 0 9 4 9 6 0 16-2 20-5 5-3 14-14 17-21l5-9 2-5 4 1a819 819 0 0067 2l12 1 14 1a415 415 0 0027 3l-2 11-3 13-3 11-4 23a374 374 0 01-7 38 444 444 0 01-9 54h-6l-16-2a951 951 0 01-82-5 711 711 0 00-43-3l-18-1a419 419 0 01-81-7l-32-4-2-29a211 211 0 00-4-40l-2-17-1-8-1-22a197 197 0 00-3-32h5l18 1zm-345 5l7 15 14 30c3 3 3 6 1 7-1 0-2 0-3-2l-2-4-8-15-2-5-6-11-6-12c-1-1-1-2 1-3 2-2 2-2 4 0zm16 11a653 653 0 0125 58l-4-9c1-3-3-10-7-14l-6-8-3-6-6-15-2-5-1-4-1-4c-1-4 1-1 5 7zm701-2l3 4h-4c-4 0-5 0-4-1v-4c0-2 2-2 5 1zm172 27l16 4a215 215 0 0042 8 572 572 0 00179 1c9-1 14 0 20 1 16 3 16 3 14 15l-2 20a456 456 0 01-18 111l-1 8-3 6-2 7c-1 3-3 5-6 7-6 5-20 11-25 12a136 136 0 00-43 16c0-3 6-17 10-22l6-11 7-11a270 270 0 0011-19c2-1 6 2 6 4l12 6 5 2c3 2 6 2 6 0l-9-6c-5-2-15-10-16-12l4-6 7-11a204 204 0 0113-22c0-3 4-5 11-6 11-1 17-3 17-5s0-2-7-1l-6-1-6 1h-4l1-1 3-6 3-8 3-5 1-4c3-10 4-19 2-21l-2-2c0-4-11-12-20-15-5-1-6-2-12 0l-10 3c-5 2-15 11-18 17-4 6-8 20-11 31-1 5-2 6-3 6l-3-1-2-3c-3-2-3-2-1-9 3-15 5-18 18-33 4-5 15-13 16-13l1-2c0-1 0-2-2-2s-20 15-23 18l-5 6c-4 2-5 4-8 12l-4 12c-1 6-2 7-3 3-1-6 0-18 3-27 3-10 3-11 1-11l-8 21c-2 7-2 20 0 24 1 1-6 6-10 7l-5 1-1-24 1-31c0-6 0-6-2-6a422 422 0 01-32 30l-8-5c-10-6-23-7-40-4l-8 1h-2l-6 2c-4 0-5 0-4-2 1-3-1-2-2 2l-2 3-6-6-9-12-5-8c-2-3-2-13 0-15 2-3 2-7 1-9-3-2-8 3-8 9l-2 4c-1 1-2 2-2 8-1 8-9 35-11 38-2 2-2 1-3-6 0-3-1-4-3-6l-3-4-1-5-2-5-2-3-2-4-1-4-2-3c0-2-1-8-4-14 0-2-1-2-2-2-2 1-2 2-1 7l1 7 2 5c0 4 9 25 10 27l4 9c2 7 2 8 1 10-2 2-4 1-13-3-11-5-35-8-41-5l-4 1-7 3c-6 3-6 3-8 2-2-3-3-5-1-8l3-2c2 0 2-3 1-7-2-3-2-4 0-10l2-10 4-10c3-4 5-10 5-11l7-8c7-7 13-11 24-12 10-1 35 0 44 2zm-572 21l1 11 2 29c0 21 2 41 5 57 0 5 0 14-1 13l-5-1h-20l-10-1-2-4c-2-3-3-4-2-9l2-12a429 429 0 0013-39l3-7 2-7a229 229 0 0110-31l1-5 1 6zm328 5a489 489 0 0011 37l11 36 9 29 3 14c-1 4-7 10-11 11l-41-2c-2 0-2-1-2-8l1-9-1-2-1-7c2-8 2-9 7-9h5c2 1 4-2 4-4s-3-3-10-4c-2 0-3-1-3-2l2-8a608 608 0 0114-77l2 5zm527 2c6 6 8 9 9 14a340 340 0 017 59v32a497 497 0 00-2 54l-1 11-2 18c-1 6-2 9-1 10v2c-1 4-5 22-5 33a464 464 0 01-15 94l-5 26-6 17c-3 9-4 10-9 15-8 7-11 9-29 13-25 6-62 9-98 9a1209 1209 0 01-149-12l-1-8 2-57v-16h7l10 1 17 2a175 175 0 0131 3 1124 1124 0 01106 11l6 2h4c2 0 3-2 3-5a295 295 0 013-40l2-27c0-14 5-32 10-44l4-10c2-4 16-19 18-19l1-1c0-2 9-7 15-8 7-2 13-4 15-6l3-2c4 0 14-8 17-14l6-21 2-8 1-7 2-11a334 334 0 0012-71 762 762 0 015-44l5 5zm-1138 5a374 374 0 0115 41l-6-12-7-14-4-8-4-8-1-2 4-1 3 4zm741 2l-2 1c-1 2-2 1-2 0s1-2 3-2l1 1zm126 8l10 11c3 4 6 8 6 11l3 4c2 1 2 1 1 5v9c0 4 0 4-3 5l-3 3c0 2 2 3 8 5 10 3 13 4 13 1l-4-4c-3-3-3-3-2-4 2-3 4-8 4-11l3-10c1-1 4 1 4 3 1 3 6 5 8 4l4-8c2-8 4-10 8-9 4 0 5 1 8 10 3 10 3 11 5 11s10-7 12-12c1-2 2-2 3-2l2 3c0 1 5 3 7 1l2-2 22-22v63l-4 5-9 10-6 5c0 1 2 2 5 2 4 2 3 3-3 4-4 1-6 3-6 6 0 1 8 3 14 3l7 2c3 1 3 2 3 5l-1 4-25 1c-20 0-22 1-24 2l-3 3c-2 1-2 1 0 3 1 2 2 3 4 2 3 0 11 2 21 7a114 114 0 0013 6h1c0-1-18-12-25-15-2-1-2-1 1-1l10 1 7 1 4 1c4 2 4 2 4 0l-5-3-5-2 7-1 12-1 4-1v17c-1 23-3 39-6 52l-3 15-4 17c-2 7 0 7 3 1l11-38 1-7 2-27c2-22 2-22 3-19 2 4 2 8 0 22-1 10-1 11 3 11h3l-2 6c-3 4-3 5-2 7 2 4 6 4 8 2l2-1-1 2-5 7c-2 4-2 7 0 8l6-1 4-2-2 2a237 237 0 00-22 93l-7 1c-8 0-7 0-6-5 1-2 0-2-2-1l-5 1-5 1c-3 2-4 2-3 0l-3-1-4-2h-4l-3-1-3-1c-2 1-3 0-3-1 0-2-1-3-3-3-3 0-8-10-8-19l-2-8 2-5 2-5 2-3 2-5c1-5 6-12 13-20 8-8 9-11 5-11-1 0-5 3-8 7-6 5-8 8-13 16-11 22-12 33-5 47 4 9 3 10-2 10l-4 1c-1 2-3 2-3-1 0-2-2-2-4 0s-3 2-4-2v-6c3-3 4-7 2-11-2-5-7-2-10 6l-5 7-3 4-1 2c-1 2-2 1-1 0 1-2-3-4-5-2l-2 1c-2 0-2-5 0-7l1-3c0-1-4-5-7-5l-3-2-1-3-4-4c-3-6-4-8-6-9v-3l-2-4c-2-2-3-6-4-9l-3-6-3-10-4-10-2-7-3-13c-2-7-4-14-4-21l1-4 1-2c0-2 6-3 17-2h10v-8-9c0-2 6-3 19-3l13-2c5-2 6-2 7-1l5 3c4 2 5 3 9 2 7-1 12-4 12-7 0-2 1-2-5 0-6 3-10 3-14-1s-4-7 0-9c3-1 3-2 3-5s0-3-6-3h-4c-1-2-6-2-8 1-2 2-2 4 1 9 1 2 1 2-1 4l-7 4c-7 1-10 0-11-4-1-2-1-3-7-3l-16 2c-9 2-21 2-23 1l-1-9-1-8 4 1 22 5c3 2 6 2 7 2l3 1 13 4c2 0 2-1 0-2-2-2-26-10-41-13-6-2-6-2-6-4 2-2 10-7 13-7h4c2-1 1-8 0-8l-6 1-5 1 3-3c2-2 5-3 7-3l5-1c2-2 2-6-1-8h-2 2c2-1 3-1 3-3 2-4 1-6-2-6l-11-2c-2-1 0-8 6-27a285 285 0 009-27l3-9 3 6zm-110 0c3 2 4 7 2 10-1 1-1 1-4-1-3-3-4-3-2-5l1-3c0-2 1-2 3-1zm-585 14v3l-8-1c-8 0-10-1-8-2l13-2c3-1 3 0 3 2zm17 1c1 3 0 4-5 3-4-1-6-1-6-3-1-2 0-3 5-3s5 1 6 3zm13-1c4 0 7 2 6 3l-7 1c-6 1-6 1-7-1 0-3 0-4 3-3h5zm862 3l19 2 16 1c2 1-2 14-7 23l-5 10-6-2-8-2-2-1h-2l-3-1-9-1-9-1-5-1c-3 1-4 0-4-1v-4l1-4 1-3 1-3c0-2 4-11 6-12 2-2 12-2 16 0zm-163 6l-3 8-2 6-5 9c-1 0-1-1 1-3v-3l-1-5v-7-4l10-5v4zm-876 5c2 4 1 4-1 0l-1-4 2 4zm130-2c2 1 1 2 0 3-2 2-2 2-3 1-1-4 0-6 3-4zm46 12c-4 7-11 18-15 22-16 19-23 25-25 25-1 0-2-1-2-4v-6l-2-11-1-9 11-12c10-10 12-11 15-11l4-1h18l-3 7zm538-5c18 1 21 1 22 3l1 3c-1 2-4 2-32 2l-41-2-14-1-6-1 1-3 1-2h24l44 1zm62 2l10 3c13 2 23 5 23 7l-6 2c-17 6-36 17-45 26-5 5-6 8-2 6 2-1 2-1 2 1-1 2 0 2 5-2 6-5 16-13 21-15 5-3 18-7 23-7 4-1 4-1 5 2l-1 6-2 7-3 10-2 7c1 2-1 10-2 10h-3c-2 1-2 2 0 2s2 1 2 4l-1 9-1 5-6 1h-23l-17-1-16-1 4-6c4-6 5-10 2-14l-4-2c-2 0-3 0-3-3s1-5 2-5l2-9 2-23 2-11 1-7 9-2h22zm-653 7c1 3 3 20 2 21 0 1-1 1-1-2l-2-6-3-8v-6c2-1 3-1 4 1zm-99 7c5 4 9 11 10 20 2 10 2 10-3 10-4 0-4 0-3-2l1-3c0-2-4-8-5-8-2 0-5-5-7-13l-2-5c-3-4 3-3 9 1zm656 10a1140 1140 0 0153 2c3 0 3 1 3 3l-1 3h-29a695 695 0 01-61-5l-1-3a613 613 0 0036 0zm297 2l2 6c2 2 2 2 0 7l-3 10-3 18c-1 1-1 1-2-2-1-2-2-10-2-23v-19h4c4 0 4 0 4 3zm-972 1l1 6-3-10 2 4zm1000 0l-4 13-3-4-3-4 3-4 3-4 2-1c2 0 2 1 2 4zm31 3l15 4 2 1-6 12-4 6-2-3-7-3-5-1c-2-2-11-5-16-5s-6 0-6-2c1-5 3-10 5-10 10-2 12-2 17-1l7 2zm-43 10l2 3 1 3 2 3-2 7a119 119 0 01-13 26l-4 9c-2 0-4-5-3-7l1-6 3-13 2-10c-1-1 4-15 7-19l1-2 2 3 1 3zm-708-2l-2 2c-3 1-3 3-2 5l1 4c0 4 0 4 4 4 6 1 11-2 11-5v-2l-1-3c0-4 0-4 6-2s24 5 40 6l8 2 4-1 14-1 12 1 32 2 14-1a809 809 0 01111 7c22 2 22 2 20 8-1 2 0 2 1 2l1 3c0 4 0 4-25 1a1593 1593 0 00-127-9 4320 4320 0 00-127-7h-6l-1-4c-1-7 0-10 3-10l5-1c3-2 4-2 4-1zm-266 6l-2 3c-3 2-3 2-3 15s0 13 2 15c3 3 5 9 3 10h-6c-5-1-6-1-6-4l-1-18c0-17 0-20 5-22 3-1 8-1 8 1zm154 4l-2 5h-6l10-11-2 6zm490 1c12 2 33 3 40 3h27v4l-1 4-10 1-16-1c-7-1-15-2-31-2h-19l-4-1v-5c-1-4-1-5 2-5l12 2zm-665 11l-3 2c-3 0-4-1 0-3 3-1 3-1 3 1zm1015 1l6 2 6 3h4c3 0 3 1 0 5l-4 8c-2 3-4 5-4 3s-9-6-15-8c-11-3-11-2-8-9l2-5h6l7 1zm-349 5a1044 1044 0 0174 3l-3 4c0 2-2 4-4 6l-3 3-17-1a583 583 0 01-47-2l-19-1-4-12c0-1 1-2 3-1l20 1zm-665 3l-1 2c-3 1-6 0-6-1s1-2 4-2l3 1zm133 7a1020 1020 0 0173 2l42 2 43 2 25 1a1230 1230 0 0165 4l-1 5-3 5c-5 6-5 10-1 14 3 2 3 3 3 8l-1 7 1 4c2 3 2 3 7 4s6 0 9-1l3-2v-7l-1-10c0-3-4-7-5-5l-2 2-1-2c0-5-3-6-6-3-2 2-3 1-3-2 0-2 3-4 6-4 4 0 6-7 3-11-1-2-1-2 1-3a3126 3126 0 01168 7l32 2a981 981 0 00120 6 637 637 0 0133 3v4c0 2 0 4-2 7l-2 7-1 7v11c3 9 5 8 5-3l2-11-1-4 2-3c3-3 3-4 1-12-1-3-1-3 1-4 4-1 44 3 51 5l4 1v18c0 18 0 25-3 61a1275 1275 0 00-4 128 894 894 0 00-2 82 615 615 0 00-3 53h-85l1-2c1-6 1-11-1-12-3-2-5 0-6 5s-2 5-4 2l-1-4c2-3 1-6-1-10l-5-3c-1 0-2 0-2-3l-3-4-1-6c1-4 0-5-1-5-2 0-6 6-6 9l3 5c2 3 2 4 2 8-1 4-1 5 1 4l4-2 1-3 2 2v4c-1 3 0 9 2 11 2 1 2 2 2 3h-9a2488 2488 0 00-43 0 2783 2783 0 00-130-2h-14l-29-1a6280 6280 0 00-206-2 23754 23754 0 01-159 2c-30 0-66-3-69-6-2-1-2-9 1-75l1-21a1002 1002 0 013-125l1-18 1-23 2-33v-23l3-3c4-4 4-6 0-11l-3-3v-15l1-15h4l6-1h26l53 1zm-186 6l-2 1c-1-1 0-3 2-3s2 1 0 2zm908 4c3 0 1 1-5 3-5 1-5 1-7-1-2-1-2-1 3-2h9zm150 9l9 4-5 9c-5 8-6 9-8 8l-6-5-6-4c-2 0-3-1-4-4-2-4-2-6 1-10 1-2 9-1 19 2zm-613 25c-1 2-1 2-2 0v-3c1-3 3 0 2 3zm-1 5l-1 1-2-1 2-2 1 2zm429 47a122 122 0 0011 25l-10-1-10-1 1-9 1-22 1-14 2 7 4 15zm16 34l2 4 4 7c3 3 4 7 4 7l1 1c2 0 1 2-2 4l-3 2-2 3-1 7c1 6 6 10 8 9l6-2 9-1c3-1 4 0 6 2l6 5c2 1 3 1 9-1l6-2 2 3 3 3h20a342 342 0 0050 1l-1 7c1 8 1 7-7 7l-18-1a982 982 0 00-100-11 235 235 0 00-27-3l-1-15a1630 1630 0 001-35v-5l12 1c10 0 11 1 13 3zm-909 92a2856 2856 0 0196 0l4 1-1 21-1 23-3 65c-1 39-1 47-3 53-3 10-4 10 13 9l30 1 30 2 14 2 4-2c3-2 4-4 4-9 0-4 1-5 3-5l4-1c1-1 14-1 15 1h7a292 292 0 0123-2 5798 5798 0 01294 1l93 1 66 1a1377 1377 0 0162 2c7-1 9 3 9 11 0 6 2 10 5 11h20l20-1a1746 1746 0 0170 0l-1-5v-26a18265 18265 0 004-94l11 1 13 1 27 2a269 269 0 0153 3c2-1 33 0 35 2a828 828 0 01-2 123c-1 1-13-6-14-8l-4-5-3-3 2-4c3-6 3-9 0-13-2-2-3-4-3-9 1-4 0-7-1-9-2-4-7-9-9-8l-4-3c-2-2-4-4-6-4s-6 0-9-2c-6-2-7-2-13-1-12 2-17 4-20 6l-5 2c-3 0-7 3-8 5l-1 6c0 3 0 5-3 8-3 4-4 8-4 20l1 11c3 2 8 11 8 13 0 6 9 12 17 14l8 3c4 2 5 2 8 1h6c6 3 7 2 20-5 7-4 9-4 14-1l7 2c3 0 11 3 12 5l1 7c0 6 2 9 7 10l7 2c5 2 25 3 28 1 2-1 2-1 2-7v-7h9l13-1c13-3 16-3 30 1 9 2 10 4 4 10-5 6-7 10-8 15-1 6-5 9-13 10l-7 2-5-5c-7-6-10-6-10-1v3l4 6c2 5 5 8 8 7l6 1c4 1 9 1 12-2l2-1 3-1 5-4c5-3 8-6 9-12l3-7 2-4 1-2 2-9 1-8-6-6c-7-6-7-6-18-8-4 0-10-1-12-3-4-1-7-2-19-2-18 0-19 0-18-9l4-49 1-14a837 837 0 013-47v-4l4 4 6 7 6 7 4 6 3 4a571 571 0 0180 121c3 2 3 3 11 3h15l9-1 4-2h3c3-2 0-13-4-16l-4-7-3-3a440 440 0 01-44-59 678 678 0 01-43-65l-3-6 9-1 16-3 19-3h6l11-11c8-8 12-12 13-16 3-5 5-6 12-5l20 8 9 5c8 4 16 9 20 13 8 7 21 29 25 42s7 49 6 65c-1 10-3 19-9 42-6 20-8 24-25 38a69 69 0 01-34 19l-28 6-19 3-19 1-34 3-23 1a5888 5888 0 01-471-9l-69-2c-5-1-53-3-80-3a988 988 0 01-102-4 3987 3987 0 01-125-3 7604 7604 0 00-172 2l-21-1a4658 4658 0 01-157-7l-16-1a228 228 0 00-28-2l-11-3a780 780 0 01-32-4c-17-2-29-6-51-17-15-8-26-18-35-31l-6-9c-2-1-6-9-8-16l-3-8c-6-14-8-53-4-66l2-8c0-1 1-4 3-5l3-6c2-8 23-31 28-32l2-1c0-1 2-3 12-9l15-6 4-3 5-2 7-2 7-3 6-2 21-4c43-6 49-7 104-7a2716 2716 0 0088-1zm961 136l-1 5v4l-1-4c-2-4-1-7 1-6l1 1zm-9 3a236 236 0 008 27c2 2 3 5 1 6-2 2-14-30-12-35 1-2 3-2 3 2zm-9 9c4 16 9 28 9 22 0-2 1-1 5 5 2 3 2 5 1 6-1 2-2 1-5-2l-4-7-5-14c-4-8-5-11-5-16l1-4 3 10zm34 3a84 84 0 01-12 38c0 2-1 3-2 3-4 1-5 1-4 3s1 2-1 2l-2 2c0 2 0 2 0 0-1-1 0-3 2-6l8-16c4-10 6-21 7-30 1-8 1-8 3-6 1 1 2 2 1 10zm-43-3l10 24c2 5 6 12 9 14l1 3c-1 1-4-2-13-11l-6-7-2-4c-3-4-5-10-5-13l-1-5c-1-2 0-4 2-4l2-1c0-1 3 2 3 4zm-9 16l1 8-1 5-1-3c-2-3-3-9-2-12 1-2 1-2 3 2zm62-1l-4 7 1-5c1-2 3-4 3-2zm0 20c-1 4-3 6-4 3l-2-4 3-5 4-3v2l-1 7zm-56-3c-1 1-2 3-1 5l-1 1v-7c1-3 2-3 3-3l-1 4zm8 7l10 5c2 0 2 1-1 4l-5 1c-4-1-6-2-5-4l-1-2-1-4c1-2 2-2 3 0zm40 2c2 2 2 3 1 4-1 2-2 2-4-2-4-5-1-6 3-2zm19 1c2 2 3 4 6 4l5 3h3c2 0 4 3 3 4l-6-1c-9-2-14-6-14-11 0-3 1-3 3 1zm-26 6l1 2c-1 1-4 0-4-2s2-2 3 0zm143 49l-1 3-1 3-3 2 2-4 2-5c1-2 1-2 1 1z"/>
  <path d="M956 559c-2 4-1 7 4 12 6 6 11 9 18 9s9 0 10-3c2-4 0-6-7-5l-9-2c-4-1-7-4-7-6l-1-1-3-2c-2-4-3-4-5-2zM980 587l-4 1c-4 0-8 2-7 3l8 2c5 0 7-1 7-2 1-2-2-4-4-4zM951 518c-3 4-1 9 3 9s5-1 5-5c0-5-5-7-8-4zM1011 520c-5 2-3 11 1 11 5 0 6-1 5-5s-3-7-6-6zM1230 689c-2 2-2 3-2 7 0 3 0 4 2 5 3 2 4 1 4-1l2-5v-6c-1-3-2-3-6 0zM1220 713c-1 1-1 5 2 10 2 6 5 7 7 4 1-1 1-3-1-8s-3-6-5-6h-3zM1222 747l-1 4-1 6c-1 2-1 3 1 5 2 4 5 4 6 1s1-13-1-15c-1-2-2-2-4-1zM1244 760c-1 2 2 5 6 6l4 2c1 1 6 1 7-1s-3-6-7-6l-3-1h-7zM940 714l-6 2c-14 4-29 19-31 31l-2 7v8l1 3 2 8 3 10c2 4 11 16 14 17l11 4c2 0 8-3 8-5l3-2c3-2 4-1 11 4 3 4 4 4 10 3l10-2 4-2c2 0 10-6 15-10l5-5 3-4c1-4 1-7-3-8s-11-9-13-13c-1-4-1-5 1-9 3-6 7-10 11-12l6-4c3-2 3-2 1-6 0-3-1-5-2-5l-4-2-3-3-2-1-1-1-5-1c-4-2-11-2-15 1-7 5-9 6-12 6-5 0-15-4-16-7-1-2-2-3-4-2zM1657 747l-2 10c-1 9-1 11 1 11s3-3 4-14l-1-11-2 4zM1651 782c-2 3-4 25-1 24l3-8 3-11-1-5c-1-2-2-2-4 0zM1646 818c-1 1-2 6-2 13-1 11-1 13 1 11s6-19 5-23c-1-2-2-2-4-1zM1640 856l-2 6-3 11-1 7c1 1 3-2 6-10l4-11c1-1 1-2-1-3-2-2-2-2-3 0zM1622 897l-1 6-4 8c-3 4-3 4-1 4 4 0 11-10 11-16 0-2-3-4-5-2zM1595 917l-10 5c-14 6-8 8 6 3 10-4 13-6 13-9 0-4-3-3-9 1zM1568 938c-2 1-6 8-9 16-4 12-2 12 4 1l6-11c5-5 4-8-1-6zM1554 975c-3 3-4 22-2 24l2-6 2-9 2-9c-1-2-3-2-4 0zM1547 1016c-2 1-2 3-2 10 0 11 1 12 4 3 3-8 3-12 1-13h-3zM1544 1053l-2 20c2 2 7-15 6-19 0-1-3-2-4-1zM1371 1058l-6 1c-7 0-9 1-7 2l20 2v-3c0-2 0-3-3-3l-4 1zM1399 1063c-1 1 2 3 4 4h4a409 409 0 0028 3c2 1 5-1 5-4-1-1-2-2-8-2a272 272 0 01-33-1zM1459 1067l2 1 8 2c11 3 17 4 18 2 2-1 2-2 0-3-1-2-29-3-28-2zM1504 1070c1 2 22 6 27 6l4-1c1-3-2-4-6-3l-23-2h-2zM1386 758l-1 5-4 14c-1 3-2 6-1 7 0 2 4 2 5 0l4-2c6-3 10-6 10-9l-3-4-4-7c-2-7-4-8-6-4zM1495 768l-4 4v-2l1-2c-1 0-4 4-6 10-7 13-13 22-12 18l1-11 1-10v-3c-2 0-4 10-5 18-1 5-1 6-3 6l-3 3c-1 2 2 5 5 5l8 3c6 2 7 2 7 0 2-2 1-3-4-6l-5-2 4-4c3-3 5-6 5-9 2-5 4-6 7-2 4 3 6 3 9-1 2-3 4-16 2-18s-3-2-8 3zM1400 807l-7 6c-3 2-6 6-8 10-3 6-3 8-3 14 0 7 1 9 8 13 5 4 10 6 12 5 3-1 15-13 17-17l3-10v-11l-4-8c-3-3-4-4-9-4-6-1-7-1-9 2zm16 11c2 4 1 13-2 18-7 10-12 13-18 10-5-2-5-3-3-5l1-3 7-8c5-4 8-8 9-12l3-4 3 4zM1456 810c-6 2-8 3-12 13-5 12-6 18-4 23 3 7 13 11 22 9 5-1 11-6 14-12 2-5 3-7 3-13 0-11-1-12-8-18-4-4-7-4-15-2zm14 11c1 1 3 4 3 7v9l-5 8c-3 3-4 3-9 3s-12-3-11-4l6-6c7-6 12-13 12-17 0-3 1-3 4 0zM1070 842c-2 2-2 3-1 5 2 3 4 3 7 1 2-2 2-5 0-6-2-2-4-2-6 0zM1082 842c-1 3-1 7 1 8s5-3 5-6c0-4-4-5-6-2zM1093 844c-3 4-1 8 3 7 2-1 2-1 2-3 0-3-1-6-3-6l-2 2zM664 866l-2 7c0 4 3 8 6 8 2 0 3-3 1-6-2-2-2-3 0-6l1-5c-2-3-4-3-6 2zM698 862c-1 1-1 7 1 9 1 2 1 2 3 0 2-3 2-6 1-9h-5zM791 864l-1 5-1 9c-2 4-2 5 0 6 2 2 3 1 5-5s3-14 1-15h-4zM623 869c-3 1-4 3-2 6v8c-1 5-1 6 1 9 3 6 4 6 8 4 3-2 5-1 3 1l-2 8-1 6c-1 0-4-4-4-7s-1-5-4-5c-2 0-4 3-3 5 1 6 2 7 3 8 3 1 4 4 3 8 0 2 1 3 3 3 2 1 3 0 5-2 3-3 4-6 4-13l1-10c2-4 3-12 2-14-1-1-5 2-5 4l-1 4c-2 2-2 1-1-3 0-5 0-6-2-6-2-1-2-2-2-8 0-8-1-8-6-6zM864 869c-2 1-5 10-5 12l-2 5c-4 5-4 9 0 14 2 2 2 3 1 4-2 2 0 8 3 10 2 2 2 2 6 0 7-3 11-14 5-14l-3 2-1 3-2-4-3-5c-2-1-2-5-1-6l3-4 1-3v6c0 4 1 6 2 7 4 3 5 1 5-6s0-8-2-9h-3c-3 1-2-3 0-6l2-3c0-1-3-5-5-5l-1 2zM883 873l-2 7c0 6 1 8 5 5 2-1 2-2 2-6-1-6-3-8-5-6zM723 877c-3 6-3 10 0 14 3 2 3 2 5 0v-4c-1-3-1-4 1-7 3-8-1-10-6-3zM829 874v3l-1 4c-2 1-2 6-1 7l1 2 2 1c1 0 2-1 2-4l1-4 2-2c1-2 1-3-1-6s-4-3-5-1zM755 878c-2 9 0 18 4 18 2 0 2-1 2-4l1-5c1-1 0-9-1-10-2-2-6-2-6 1zM976 878c-2 1-3 14-1 15 3 3 9-11 6-14-1-2-4-2-5-1zM1072 881c-1 2 0 7 1 8 2 1 5-1 6-3 0-3-2-8-4-8l-3 3zM695 882c-2 3-2 6 1 8 2 2 2 3 0 9-1 6-1 7 1 8 2 2 3 1 4-5 3-8 3-9 0-13l-1-5-1-3c-2-1-2-1-4 1zM1007 887c-2 5-2 8 0 9 1 1 1 2-1 2v3c0 2 4 1 6-1s2-6 0-7v-3c2-3 1-7-2-7l-3 4zM1174 885v4l1 2c0 1 0 2 2 3l2 2-2 5-2 8c0 5-1 5-4 3-2-1-2-1 0-2l2-6c1-6 0-10-3-10-2 0-4 3-4 8l-2 6-2 4 2 5 2 4c0 3 3 5 7 4s8-6 8-9l2-13c2-3 2-7 0-9l-2-6c-1-4-1-5-4-5-2 0-3 1-3 2zM665 892c0 5 0 7 3 6s5-9 2-10c-4-1-4-1-5 4zM1042 889l-1 4 1 6c-2 15-2 14 0 14 3 0 6-8 6-16 0-6-2-10-4-10l-2 2zM1136 888l1 6-1 5c-2 3-1 8 2 8s5-8 4-14l-1-5-2-1-3 1zM1232 891v14c-2 8-1 10 2 9l3-4 1-4c1-2 1-13-1-15-1-2-5-2-5 0zM952 894c-1 1-1 6 1 8l2 6c0 2 0 3 2 3 3 0 3-1 3-4l-1-5 1-3-1-4c-2-1-6-2-7-1zM813 899v7c0 3 0 4 2 4s2-1 2-7 0-7-2-7c-1-1-2 0-2 3zM1321 898l-1 8c-1 7-1 7 1 6 2 0 3-1 4-5 1-9 1-11-1-11-1-1-2 0-3 2zM790 899c-1 2 0 4 2 8 3 5 4 6 6 5v-7l-3-7c-1-3-5-2-5 1z"/>
  <path d="M1093 897v6c0 6-3 17-4 21v3h-12a2702 2702 0 00-123-5l-54-3-39-1-27-1-62-1c-50 0-58-1-77-3-23-3-42-4-45-2-1 0-2 15-3 59a712 712 0 01-8 118 914 914 0 00-2 86c1 3 2 3 4 3l3-2h2l6 1 10-1a5624 5624 0 0095 4c0 3 3 5 6 3l1-3c-1-2 0-2 11-3a444 444 0 0153-2 2535 2535 0 01316 2 395 395 0 0178 4c9 1 37 3 40 2 6-1 6-2 6-18l-1-17a7028 7028 0 010-214 608 608 0 01-118-2c-56-3-57-3-56-4 2-2 4-11 6-22 0-4-1-8-4-8h-2zm-314 28h-10 10zm-99 1l20 3 30 2a458 458 0 0157 4c-5 0-6 3-4 6 2 1 2 2 6 1 9-2 16-1 24 4l4 2 8 6c4 4 4 4 6 13v19l-5 7c-3 3-6 6-6 8-2 4-8 7-19 10-5 1-20 1-34-1-11-2-16-2-16-1 0 2 12 5 23 6l5 1a63 63 0 0043-8c2-2 6-4 9-4l8-3c3-2 12-3 11-2l-9 3c-13 4-11 6 3 3l12-1h2c-6 1-33 7-40 10-9 2-11 3-11 5 0 3 1 3 3 1a182 182 0 0139-9 1360 1360 0 00-45 18l-5 2a918 918 0 0066-18l8-1c7 0 8 0 8-2l3-3c2-2 2-4 0-6-2-1-3-1-17 2-2 1-3 0-3-2 0-3 0-3 8-3l14-1 27-2a493 493 0 0078-6 324 324 0 0036-2c-2 2-4 2-25 4a187 187 0 00-17 2l-15 1c-24 3-36 3-55 3-21 0-24 1-23 4 1 2 53 1 76-1l38-2-6 1-10 1-18 2c-13 0-16 1-14 4 2 1 3 2 15 1a139 139 0 0022-2l15-2a423 423 0 0152-2 161 161 0 0140 2l9-1 8-1-1 3v5c1 3-1 3-4-1-5-3-8-4-8 0 0 3 6 7 10 7 3 0 9 4 8 5l-4-1-6-3-3-1-2-2c-1 0-3 0-4-2l-5-2-4-1-30-2c-32-1-53 0-64 3-4 1-5 2-3 4 1 1 0 1-6 2-8 1-10 1-20-2-4 0-7-1-8-3l-9-2c-25-2-61-1-61 1s3 2 15 2l14 1 11 1 14 2 8 2c3 0 3 0-2 1l-7 1a1182 1182 0 01-75 2l-14 3h-8a194 194 0 0150-8c3-2-11-2-16-1l-11 2c-9 1-19 2-23 4-2 0-3 1-2 2 0 2-2 3-18 6-10 2-13 3-13 5s3 2 9 0a448 448 0 0131-7c-2 3-6 4-30 8a119 119 0 01-48 3c-1 1-1 3 2 4l3 1-2 2h-5c-3-2-12-4-15-4h-2l9-1a1410 1410 0 01-41-5h-8 12a229 229 0 0137 2c0-1-6-3-21-5h-35c-3 3-2 1 1-4l3-6 1-5c0-7-4-17-8-17-2 0-2 4-1 5l3 10c0 4-5 15-7 13v-8c1-8 0-15-3-18-6-4-18-6-16-2l2 1v2 5c2 4 1 10-2 15l-7 7 2-3c4-2 6-13 2-11-2 0-2-1-1-2l1-4c0-3-1-5-4-8-4-4-6-5-10-6h-6l-5 1c-2 0-3 1-2 2 0 1 1 2 7 2 5 0 7 0 10 3 3 2 3 3 3 6v3l-1-3-6-6c-2 0-3 3-2 5v3c-1 1 0 2 1 4 2 3 3 3 5 1 1-1 1 0 1 1-1 2 0 3 1 4 2 1 2 1 0 3l-9 1c-8 0-10-1-9-5 1-2 1-2 2-1h4c3-1 3-4 1-5h-2l-3-1c-2-1-2-1 0-2 2 0 3 0 2-3-1-5-1-5-4-5h-3c-2-1-1-8 1-10 4-4 15-2 25 4l3-1c1-1 3-2 12-2l11 1 3 1 5 1c4 1 7-2 6-4l-6-2-5-2h-3l-9 1-8-1 1-3h16c7 2 12 2 14 0 3-3 23-1 31 3 8 5 22 6 34 3h8c4 3 12 2 16-2 2-2 2-3 1-7-1-6-5-10-13-14-4-2-4-2-2-2 5-1 10 1 11 3 2 3 5 5 7 3 1-1 1 0 1 1l-1 4v3l3 1c4-1 3 2-2 7-8 8-12 10-33 10-13 0-18-1-24-2-10-3-20-4-26-3-5 1-4 3 3 3 8 0 13 1 23 5l13 2h14c15 1 21-1 30-7 10-7 15-17 10-22l-2-2-4-4c-3-7-16-15-23-15l-6-1c-4-1-15 0-29 4-11 2-36 3-40 0l-3-1-18-3c-7-1-19-2-20 0-2 1 2 3 10 4l28 6c14 2 31 2 40 0 14-4 29-5 34-4 3 1 2 1-4 2-3 1-9 2-11 4h-9c-3-2-4-2-7 0-4 2-18 3-33 2l-41-6c-11-2-28-3-28-1-1 1 2 2 15 4a271 271 0 0128 5l26 3-20 1c-18 0-21 0-29-3l-16-2h-8v-4l2-11 2-14 1-6 3 1 5 1 12 2c4 0 4 1-1 3l-4 2-6 1c-9 0-10 3-1 4l7 1 32 3 4 1h15c14 0 16-1 15-5 0-2-1-2-4-2-2-1-4 0-4 1s-2 1-39-1l-14-2h-3 3l8-3 11-1 9 1c23 2 31 3 36 5 4 2 5 2 5 1l-1-3c-2-1 0-1 9-2l11-1v-1c-1-1-6-2-16-2l-21-1c-10-4-19-5-25-4-6 2-20 1-34-2l-10-2v-2c1-3 2-3 18-1zm141 5c1 1-5 0-8-2h2l6 2zm30-1c1 1 0 1-3 1l-6-1h9zm51 2c1 1-1 1-5 2a564 564 0 00-49 8l-1 2-4-2-8-5c-4-1-4-1 14-1 14-1 21-1 31-3 12-2 19-2 22-1zm71 1l18 2c10 3 12 2-24 3-21 0-23 0-27 2s-5 6-2 10c2 4 5 5 8 4 2 0 2-1 1-2l-2-2-2-1v-3c0-2 9-3 29-3 22-1 30 0 30 2l-3 3c-2 1-3 2-3 4-1 2 0 2 2 2 3 0 8-2 11-4l1-5c-1-5-3-7-7-7h-3c0-2 14-1 18 1l5 1 10 1 11 1 10 2 13 3c31 6 34 7 34 9v4c2 2 0 2-4 0l-6-2s-3 0-5-2l-6-2h-4l-7-2-11-1-14-2-14-1c-6-1-10 1-11 5 0 2-8 6-14 7l-28 5-2-1c1-3-2-3-9-1-5 2-7 2-14 2-14-1-16-1-29-6l-14-3c-4 0-5 1-5 2 0 2 1 2 3 2l14 4 22 6h4c1 1-10 4-15 5l-4 2c-1 3 6 2 23-2a230 230 0 0121-4c19-4 29-5 46-5 22 0 27 1 19 4l-8 2-11 2-22 1a387 387 0 00-30 2c-6 0-20 4-21 5-2 2 2 2 13 0l27-2 44-2h3c-1 1-22 4-32 4l-13 1-39 5-15 1c-7 1-8 0-5-2l-1-3c-1-2-3-2-7-2a444 444 0 01-34 1c0-2-1-3-3-3l-8-1-4-1-7-2c-6-3-10-7-27-25-4-5-7-7-10-7h-4l-9-3c-9-5-13-6-19-6-5 0-5 0-3-2l11-1c11 2 21 5 29 11 3 3 4 3 7 3 2 0 3 0 5 3 2 2 3 5 3 7l2 4 3 2 2 1 10 8c6 4 7 3 2-2l-2-3h3l2 3c1 2 2 2 5 2h4c-1 2 1 4 4 4l9 2 15 3c8 1 9 1 10-1 0-2 2-2 11-4 12-2 15-5 6-5l-8-1-7-1c-6 1-10 1-15-3-4-3-8-4-16-5l-11-2-5-2 6-1 9-3 11-2 27-7 1-1c-1-1-11 1-30 5-16 3-34 5-39 4-2-1-5-2-6-4v-1l7-1a254 254 0 0147-7 215 215 0 0137-4l12 2c6 1 7 1 6-1 0-2-2-2-7-3l-6-1h9l18 2zm47 2h-3c-1-1-1-2 1-2s2 1 2 2zm121 5l13 3 20 2c19 0 37 2 40 3 6 2-24 1-53-2a675 675 0 00-26-4l-5-2-2-1h2c2-1 6 0 11 1zm60 0c0 1-1 2-4 1l-16-1h-12l16-1 16 1zm34 1c2 1-1 2-6 1l-9-2h-3c-1-1 17-1 18 1zm-148 2c12 3 20 5 28 9l20 5 10 2 3 1 7-2h6v3c-1 2-1 2-6 3l-6 1-2-1c0-1-1-2-6-2-7 0-19-2-29-5-5-1-6-2-6-4 0-1-1-2-8-4a307 307 0 01-22-6l-7-1-4-1 3-1h5l14 3zm17-2l6 2 4-1h5l8 2 10 3c7 3 17 5 36 5l15 1-9 2h-9l-13-1c-12 0-27-2-31-5l-4-1h-3l-12-4a1614 1614 0 01-3-3zm152 0l-1 1-2-1 2-1 1 1zm-13 3c11 3 12 4 12 6-1 3-1 3-5 0l-8-5c-5-3-4-3 1-1zm-6 4c4 1 14 7 16 10 2 2 1 2-3 0-2-2-6-3-9-4l-12-5-8-3c-2-1 11 0 16 2zm-183 7l8 1a199 199 0 0136 9l9 3 6 1h-7c-7 0-9 1-6 3 1 1 2 1 0 1l-20-6c-1-1-6-4-11-5a209 209 0 00-34-3l-6 1c-5 0-6 0-4-1l1-3 2-2c2-1 21 0 26 1zm180 3c15 3 25 12 22 18-1 1-2 1-4-1l-12-9-3-1-4-1-5-1-15-1c-21 0-41 4-42 8s-18 6-26 4c-2-1-2-1 2-2l6-2 4-1 8-2a126 126 0 0169-9zm-373 23l5 2h-5a169 169 0 01-20-4c-3 0-3 0-3-7v-9c-1-2 1-1 8 6l15 12zm14-19l4 2h-4c-3 0-6-1-6-3 0-1 1-1 6 1zm-73 1c2 0 3 1 3 2l-4-2c-5-2-4-2 1 0zm316 1l12 2c3 0 4 2 1 2l-15-3c-14-4-13-4 2-1zm-60 1l9 2c3 1 2 1-10 1-11 0-13 0-11-1l2-2c0-3 0-3 2-2l8 2zm88 1l-3 1-3-1 3-1 3 1zm78 3c12 2 5 15-9 15l-5 2v3c1 2 1 2-2 2-2 0-3 1-2 2l26 4h8c2 1-18 3-23 2l-8 1-6-1c-4-2-4-2-3-4 2-2 1-3 0-4l-4-2h-1c4-2 5-4 5-7-1-3 0-4 4-7 4-4 5-5 8-4 2 0 4 1 5 4s2 3 4 3c4 0 4-4-1-8-4-3-5-6-1-3l5 2zm-321 3l2 3c-1 1-23-3-24-4 0-1 1-2 4-2 9-3 12-2 18 3zm295-1l-7 6c-6 3-7 5-5 9l1 1c-2 0-19-8-18-9 0-2 30-11 31-10l-2 3zm-419 3c0 1-6 2-15 2l-13-1 7-2c4-1 4-1 6 1 1 2 8 1 10-1s5-1 5 1zm312 3c3 0 5 1 5 2h-2l-11-2c-9-2-12-3-8-3l3-1h4c2 2 6 3 9 4zm-420-2l10 2c3 2 6 2 24 2h19l-2 3c-2 2-2 2-3 0l-20-1h-39c-4-2-4-4-3-7 1-1 1-2 4-1l10 2zm72 0h-6l-7-1 13 1zm314-1l-5 1-7 1c-3 2-10 2-10 1l2-2c3-2 23-2 20-1zm190 9c1 1 1 2 3 0 1-1 2-1 2 1l2 4-1 2-3 2c-2 2-2 2-3 1l-2-4c0-3-2-4-5-3l-4 1-4 2c-1 1 0 2 3 2 2 1 1 1-8 1-12 0-13 0-4-3 8-3 11-5 13-10l2-4 4 3 5 5zm-107-6c1 1-2 2-6 3l-8 1v-6l6 1 8 1zm-385 4a165 165 0 0025 0c1-2 2-2 2 0l2 2c2 1 1 1-2 3-4 2-18 2-23 0l-9-3c-10-3-6-4 5-2zm308-1l-5 1c-2 0-3 0-2-1h7zm24 1l12 1c5 4 24 6 38 3 10-2 20-2 24 0l6 1c2 0 4 0 6 2 4 3 12 14 13 19 2 5 1 10-1 10s-2 0-2-4l-2-5-2-3c0-2-7-8-10-10l-3-2c0-2-5-5-11-7h-10c-6 2-11 3-23 4-5 1-7 0-8-1l-4-2a763 763 0 01-36-5l-5-1 4-1 14 1zm-428 6c-2 1-4 1-4-1 0-3 1-4 4-2v3zm185-2c6 2 27 4 43 5h16l-12 1-19 2h-13c-7-1-12 1-23 6-9 4-9 4-5 0 3-3 7-11 7-14 0-2 2-2 6 0zm244 4l11 1c6 3 10 5 17 5 9 1 10 2 2 2-9 1-25 0-27-1s-18-2-30-1a1816 1816 0 01-37-1c7 0 11-1 11-2l7-3c7-2 31-2 46 0zm-181 0l-3 1v-1l3-1c2 0 2 1 0 1zm15 0l-6 1-6-1 6-1 6 1zm-238 1c2 1 1 2-2 2s-4-1-3-2h5zm506 7l12 6 5 2-7 1c-6 0-7 0-8-2l-3-6c-4-5-4-6-1-4l2 3zm-30-1l3 2-11-3 8 1zm-8 4l5 2-7-1c-11-3-21 0-23 7-1 5 0 5 6 9 5 4 4 5-2 1-7-4-9-12-2-17 5-4 13-4 23-1zm-455 5l2 5-2 7-1-5c0-5-1-6-3-8v-2l4 3zm470 4l1 4-2-1-4-5-3-4 3 2 5 4zm-16-3c3 1 7 4 7 6h-8l-9 1v1l2 2h1l-5-1c-6-2-7-8-1-9h13zm104 3v4l-8-1-10-1c-1-1 2-3 5-3l7-1c6-2 6-2 6 2zm-33 2l2 2h-9c-8-1-10-1-15 2l-7 2 1-4 1-3h12l15 1zm-152 1c22 0 22 0 32 5l8 3 5 2 6 3c3 1 2 1-3 1-7 0-12-1-27-6l-16-4-12-2c-7-1-37 0-42 1h-11l-8-1 7-1c12-2 21-2 61-1zm181 5l4 4c0 2 0 2-4 0l-17-6h5l12 2zm-184 2c10 1 19 4 19 6s5 4 12 5l12 2 24 6c14 2 31-1 38-7l4-3 5-3c4-4 5-3 1 1-6 8-21 14-33 15l-9 1h-6l-10-1a121 121 0 01-37-9 309 309 0 01-14-4c3-1 3-3 0-3l-15-1-18-4c-3-1-3-1 2-2l25 1zm157 0l12 3 6 1c2 0 9 4 8 5s1 3 3 3 2 1 2 4l-1 3-6-3-10-4c-12-3-35-6-36-4-2 1 0 2 9 3l26 7c5 2 6 2 3 3l-3 2c-1 1-31 6-41 5l-18-2-9-2 5-1c12-3 32-5 40-3 2 0 3-1 3-2 0-2 0-3-2-4-4-1-18 0-26 2h-5l1-2 1-2 6-9c0-2 12-4 18-4l14 1zm-212 2l9 1c1 1 14 4 27 5l18 4 10 3-8 1c-13 2-21 1-23-1s-5-3-26-8c-30-6-33-9-7-5zm-30 0a362 362 0 0137 10l10 2c-1 1-25-2-31-3l-14-3c-26-5-28-5-25-6a131 131 0 0123 0zm-282 4l-1 5c-3 5-12 10-20 11-7 1-19-1-21-3-3-3-1-3 5-1 13 3 23 0 29-10 2-3 3-5 5-5s2 1 3 3zm222 1c15 2 14 3 0 2a280 280 0 00-67 3c-1-1 13-5 20-5l8-1c1-1 30 0 39 1zm30-1c1 2-2 2-6 0h6zm9 2zm202 1c-7 4-18 6-27 4l-5-1h-2c-1-2 11-4 20-4h17l-3 1zm-222 1h-5l3-1 2 1zm-30 2h-3c-2 0-3 1-2 2 0 1 6 1 17-1 7-1 17 0 26 2a155 155 0 0020 4h2l4 1 4 1-5 1c-6 2-23 1-45-2l-25-2-16-1-5-3-4-2 5-1c7-1 27 0 27 1zm-238 1l-2 1-1-1 2-1 1 1zm29 6c-3 0-3 0-1-2h3l-2 2zm17-2h-9 9zm160 2l3 1c3 0 5 3 3 4v2l3 1 2 2c2 2-1 2-9-1l-6-1-5-1c-11-3-20-3-38 1-5 2-22 2-22 1l2-1 13-2a147 147 0 0145-8c1-1 8 1 9 2zm138-1l20 2 5 1-14 2-14 2-6-3-5-3v-3l14 2zm65 0c3 1 2 1-2 2-9 3-21 5-23 5l-33 8c-15 5-30 8-41 9-13 2-48 2-52 0-4-1-6-4-5-5l14 1a167 167 0 0064-6l8-2 20-3 23-3 10-2 12-4c0-2 2-2 5 0zm-275 5l-13 2h-6l5-1 10-1c8-2 10-1 4 0zm119 1l14 2h5c1 1-1 1-4 1-14 3-40 1-43-3-2-1-2-2 7-2l21 2zm180 0c1 1 1 1-2 1a659 659 0 00-79 13l13-5 20-3a143 143 0 0027-5l4-1c4-2 13-1 17 0zm-364 1c12 1 19 3 20 4l-14-1c-14-3-22-3-40-1l-19 2 7-3 10-1c5-2 28-2 36 0zm261 1l-11 3-18 4-24 1c-17-1-23-1-13-2l18-1 7-1 4-1 8-2 9-2 9 1c4 2 4 2 5 0s2-2 4-2l2 2zm-339 0l5 1-6 1-8 1c-2 0-2 0 0-2 2-3 2-3 9-1zm505 1c12 4 19 5 32 5a232 232 0 0022-2c5-1 5-1 6 2v2l-21 1c-20 0-45-1-61-4a264 264 0 00-64 3h-10l8-1 14-2a1085 1085 0 0031-3l12 1 12 1c1 1 3 0 7-2l6-3 6 2zm-302 3l1 1c-1 0-1 2 1 9 1 5-12 14-20 13l-7 1-3 1-10-1c-9 0-15-2-18-4l-10-1c-9 0-12 1-18 3l-7 1-3 1-8 3c-6 1-6 1-10-1l-3-2 5-1c14-2 40-8 41-9 2-2-12-1-29 2l-13 1c-4 0-5 0-6 2l-1 3h-4c-14-5-19-6-22-5a243 243 0 01-38-2c7 0 9-1 10-2a701 701 0 0175-1l1-3 2-1 10 2 9-1c0-2 1-2 5-1a270 270 0 0043 1l-1 2c-1 3 3 6 9 8 10 3 14 2 17-4l1-8c-2-7-7-6-7 1 0 2 0 3-3 4l-5 1c-1 0-6-4-6-6h7c1 2 2 2 3 0 2-3 2-5-2-6-3-1-3-1 4-1h10zm42 1a340 340 0 009 3c-13 1-16 1-16 3h9c8 0 9 0 9 2l3 5 1 5c-1 1-2 2-7 3-4 1-3 3 1 4l2 2-20 4-13 3-3 1h5a408 408 0 0122-3l44-4a726 726 0 0063-4l-11 5h-12c-6-2-9-1-16 0l-15 2-44 8c-27 6-28 6-54 6-23 0-26 0-32-2-7-2-8-4-1-2h28c9-2 17-5 20-8 0-2 3-3 6-4a254 254 0 0019-6l3-1c-1-2-15-1-21 1l-6 1c-3 0-3 0-1-1l2-5 3-5c3-3 3-6 1-9-1-2 2-2 3 0s2 2 5-2l5-3 9 1zm333-1c2 1 1 2-3 2-3 0-4-1-2-2h5zm-465 2c1 1 0 2-2 1l-7-2h2l7 1zm-27 2l11 2c3 1-5 1-23 1-28-1-48 0-48 3l2 1-3 1h-32c-4-1-4-1-2-2l7-2a244 244 0 0139-3l3-1 16-2c1-1 22 0 30 2zm91-1l-3 1c-1-1 1-3 3-3v2zm-19 1l-6 1h-6l6-1h6zm248 1l-5 1-4 2h7a541 541 0 01123 1h26l15-1 1 3c2 2 2 2 0 3-9 2-35 3-53 2-9-1-9-1-9-3 1-2 0-2-6-1-9 1-16 1-24-1-15-3-30-4-56-3l-36 4-1-2c1-2 1-2 9-4l10-1h3zm-188 5c0 2 0 3-2 3l-3 4c-3 7-11 11-20 10-4 0-4 0-1-1l9-4c8-4 11-9 11-13-1-3-1-3 2-2 3 0 4 0 4 3zm360-3l3 2h-1c-4 0-7-3-3-3l1 1zm-152 5l-11 1h-7l6-1h12zm-47 1l-3 1-9 2c-16 4-42 7-81 10-24 2-22 2-21 0l1-5v-4l9 1 9 1-5 1c-7 1-9 1-9 3l33-1 16-2a170 170 0 0024-3l20-2c15-3 18-3 16-2zm89 1l14 3-14-1-8-1c-4 0-7-1-7-2l15 1zm-470 2c1 1 0 1-4 1h-6c0-2 9-2 10-1zm591 1l-2 3c0 1-7 4-13 4h-59c-10-2-22-4-25-6h2a225 225 0 0017 2 386 386 0 0080-3zm-197 1l-7 2-8 2c-2 1-2 1-1-1s3-3 6-3h10zm65 1l-9 1-12 1c-8 1-14 2-15 1s-3-1-7 1l-7 2-1 1c0 2-14 7-19 8h-9l-10-2c-5 0-16-1-15-2l7-2a743 743 0 0063-10c1-1 33 0 34 1zm-414 1l-3 1c-2 0-6 3-6 5l3 3h4l9-4c8-3 19-4 20-2l-1 1c-1 0 3 7 6 9l3 3c0 1-1 1-3-1-4-2-7-3-7-1l2 2v1l-5-1-17-1c-9 0-12 0-13-2a113 113 0 00-48 3l1-3 1-5c0-1 3-2 17-2 18 0 22 0 23-2 0-1 0-2-3-1a388 388 0 01-25-2l9-1a509 509 0 0133 0zm104 7l17 3 7 1 8 2 10 1 5 2 2 1h-2c-3 2-12 2-19 0l-15-2a280 280 0 00-55-1c2 0 2 1 2 2-1 1 1 1 10 1l19 2c8 3 15 5 14 6 0 0-23-1-29-3h-9c0 2 7 4 10 4 2 0 3 1 3 2h-2l-13-1-12-1v-1c3 0 3-9 0-13-1-1 5-2 16-3l12-2c9-3 14-3 21 0zm444 3c0 2-1 3-3 3l-4 2c-2 2-4 2-15 2-12 0-17-1-25-4-1-1-2 0-2 1 0 2 10 5 18 7 7 1 26 0 29-1 1-1 1 0 1 2 0 1-1 2-5 3-6 2-26-1-42-6a304 304 0 00-42-12h4l46 3c13 0 26-1 34-3 6-1 7-1 6 3zm-134-2c-7 1-25 7-33 10-7 3-8 3-8 1s0-2-5 0l-5 5c0 2-1 3-2 3a338 338 0 00-19-8l7-2 17-5 11-4h37zm-365 5c3 2 5 5 2 5l-5 1-4 1 3-3c2-2 2-3 1-4-1-2-1-2 3 0zm390 0c7 0 7 0-6 1a192 192 0 00-43 12c-5 1-13 5-19 10-12 8-15 11-22 12-7 3-18 3-28 1-8-2-10-3-22-9-9-5-19-4-27 1-5 2-6 2-4-1 2-2 2-2 1-3-1-2-27-2-33-1s-21 5-30 9c-24 8-44 10-82 4h3c3-1 4-1 4-4 0-2 1-3 2-2h30c9-1 24-3 32-6l32-7h42l12 3h8c1-2 4-2 8 0l8 4 11 5c7 3 9 4 15 4 5-1 15-4 22-8l5-3 2-1 8-3c13-3 13-4 13-5 0-2 3-3 10-6a73 73 0 0116-5l6-1a469 469 0 0126-1zm-141 7c0 2 0 2 7 2 4 0 7 1 7 2l4 1 5 2c4 2 19 1 21-1l3-1c2 1 2 1 1 2-3 2-6 2-17 2-10 1-14 0-31-4l-16-4c-5 0-10-1-8-2 3-1 21-3 22-2 1 0 2 1 2 3zm-320-3v2l-2 1 1 1 16-1-12 3-5 1-10 2-21 7-4 2 1-3c1-3 2-4 11-8a65 65 0 0123-7h2zm287 2c-1 4 1 5 8 6l6 1-14-1-6-3a513 513 0 00-65 11c-32 8-43 8-69 4-28-5-52-12-29-8 14 2 28 2 29 1h62l22-4 12-2a2445 2445 0 0041-7c3-1 3 0 3 2zm208-1l8 2h-2a214 214 0 00-21-3c0-1 7-1 15 1zm-146 2l7 3c0 1-8 0-14-2-11-4-4-5 7-1zm97 2l-4 1-18 10c-10 6-24 13-41 20l2-2 2-4 1-2 5-3a51 51 0 0112-7l8-3 7-3 3-1 3-1 22-6-2 1zm43 0l-4 1a78 78 0 00-24 6l-14 6c-21 9-29 12-38 14-9 3-9 4-1 3l6-1-4 2-4 1 7 1c13 1 23 1 27-1l10-3 18-6c2-1 15-4 22-4l13 1 9 2c6 0 9 1 10 4 0 2 3 2 9 0h8l13 2c9 0 9 0 11 2l3 2 1 4v6l1 3-4-4c-5-8-6-5-2 5l1 5h-1c-1-3-4-2-4 1-1 7-14 10-33 8l-16-3-49-12c-14-2-28-2-33 1h6a126 126 0 0144 7l5 1 3 1 4 2 16 4c11 4 16 5 25 5l3 1h-9c-13-1-32-5-66-14-9-2-20-3-28-3-8 1-7 2 1 2 9 1 15 2 15 4 0 3 0 3-12-1-15-4-33-5-47-2l-8 2h19c18 1 24 2 32 6h3l1 1-7-1c-10-2-38-4-68-4a272 272 0 01-24-2c18 2 26 0 54-8l12-3 6-2v-3c-3-3-8-2-21 2-24 8-34 10-61 9-12-1-12-1-9-4 4-5 4-13-2-17-4-3-11-6-14-6-3-1-3-2 0-3 6-2 15 0 25 6l13 6c3 1 3 1-1 1-3 1-2 1 3 1a123 123 0 0041-3l-3 3c-9 4 2 2 17-4 10-4 27-12 39-19 7-4 14-6 24-7 4 0 7-1 7-2l23-2h1zm-432 2c0 2-1 2-3 0-1 0-1-1 1-1l2 1zm-25 2l5-1c2-1 6 0 13 2l5 2-15 1-27 2c-11 2-17 5-40 15l-9 4-3 1 1-5c0-5 0-5 5-8 10-5 14-7 32-10 19-4 28-5 33-3zm285 3l3 1h-3l-5-1-3-1h3l5 1zm192 0l19 2c4 0 13 3 19 6l5 2h-3c-5 0-4 0-9 2-6 2-11 1-12-1-1-1-3-2-7-2l-14-2c-15-3-26-2-47 5l-20 7c-6 2-23 4-23 3v-1l28-10 31-12c5-1 28 0 33 1zm42 2l6 3c2 3 1 3-2 1l-9-4-7-2 12 2zm-475 0l-2 1-3-2 5 1zm32 2l21 6c2 2-30-4-38-7l-4-2h5l16 3zm220-1c6 3 10 3 11 3h11a90 90 0 0019-1l-7 4c-9 5-13 4-29-2l-13-5 8 1zm-230 6c4 2 10 3 13 3l20 5-15-1c-12-2-27-5-30-8-5-3-5-4 0-2l12 3zm-79-1l-5 1-6 3c0 1 4 1 20-1l7-1-2 2c-2 2-3 2-19 2-15 0-19 1-16 3l11 1c16 1 18 1 18 5 0 2 0 2-2 2l-13-3-21-4c-3-1-3-2 11-8l16-3 1 1zm7-1h-2 2zm32 2l5 1c3-1 13 2 15 4l5 1 11 2a1051 1051 0 0046 9c0 1-4 2-9 2l-16 2c-6 1-6 1 8 1 19-1 32 0 32 2a181 181 0 0123 4 834 834 0 0047 7 214 214 0 0072 5c13 0 25 1 36 4l10 2 15 3 10 3-9 1c-10 2-25 2-33 1a505 505 0 00-39-5l-34-6c-11-2-29-4-41-4-11-1-12-1-14-3-2-3-3-3-39-5l-30-1-11 1-6 1-16-7c-8-4-15-7-16-6h-4c-4-1-4-1-5-5 0-6-2-7-9-11-6-2-7-2-10-1-5 2-6 1-2-1 5-3 5-3 8-1zm509 7l-4-4-4-5 4 4c3 2 4 5 4 5zm-425-5l4 1h-5l-8-1h9zm124 1l1 2 2 2c3 0-9 3-12 2-5-1-18 2-21 4s-4 7-1 9c5 7 15 11 28 12l11 1a291 291 0 01-63-6 235 235 0 00-45-4l-8-2h2l29 1c21 0 28 1 33 2 5 2 6 2 6 0 2-2 2-2 0-4-1-2-3-2-32-2-21 0-31 0-30-1l20-1c21 0 29-1 40-5 25-9 32-11 40-10zm291 2l-3 1-4-1 4-1 3 1zm-521 6c-2 2-2 1-1-2l2-1-1 3zm13-3c-2 2 0 4 3 4l4 2c1 1 2 1 0 3-3 4-16 3-16-1 0-2 3-5 7-7l2-1zm15 1c2 3 3 5 1 9-2 3-7 6-10 6l-5 2c-3 1-5 0-11-3-2-1-6-7-5-8l1 2c3 6 15 8 24 5l4-5c1-4 1-4-1-6l-4-2v-1c2-1 4-1 6 1zm-78 2l13 3c15 4 31 9 33 11l1 1c-3 0-24-5-31-8l-16-4c-5 0-9-1-9-2l6-2 3 1zm314 1l4 2c4 0 9 7 8 10-1 4-4 5-18 5-18 0-42-2-45-3s-7-4-9-7c-1-1 0-2 3-3 5-2 4-2 3 1-3 5-1 6 11 7 17 1 30 1 35-1 6-2 8-8 3-11-2 0-3-1-3-2l8 2zm-21 0c1 1 1 1-2 1-2 0-4 0-3-1h5zm10 3c2 3 1 3-6 4l-12 1-9-1h-5c-4-1-4-1-2-2h19c3 2 7 1 7-2 0-2 5-2 8 0zm-306 4l8 1h-29l10-2 11 1zm20 5l10 5 16 5h16l9-3 25-3c6 1 15 5 15 7 0 1-3 2-4 0s-8-6-11-6c-4 0-8 3-9 5-1 3 0 3-27 3-19 0-20 0-22 2-1 2-3 2-5 2-5 0-4 3 1 4l46 7 5 1c3 0 10 2 9 3l-17 1-26 1c-15 2-34 0-54-4-16-4-19-5-19-9 0-2 1-2 5-3l18-2 16-1 2-1-2-1h-19l-19-1v-4-4-2c2-2 36-3 41-2zm103 9l2 1 6 2 4 2-4 1c-5 1-10 0-10-1l-1-4 1-2 2 1zm63 2c25 3 26 3 17 4-8 1-4 2 9 2a226 226 0 0148 6 323 323 0 0044 7l-10 1c-8 1-10 0-12-1a357 357 0 01-93-14c-8-2-31-4-36-3-3 0-10-1-16-4-3-1 32 0 49 2zm120-1c2 1 2 1 0 1l-3 1-1-1c-1-2 1-2 4-1zm-207 1l2 3 4 2 6 1c2 1 0 4-4 5h-7c-5-3-7-5-7-10 0-2 4-2 6-1zm-14 7c0 4 0 4-3 5-4 1-10 0-28-2l-13-3 11-1 33-2v3zm68 2l9 2 1 2h-2l-10-2a77 77 0 01-17-4l-4-1 5-1c5 0 6 0 18 4zm27-2l7 2c1 2-16 1-20-1l-5-2 18 1zm404 3l-1 4h-7l-3-2 4-1 5-3c2-2 2-2 2 2zm-455 0l9 3c2 1 2 1-3 2a210 210 0 00-13 1v-8l7 2zm266-1l30 6 23 3c9 1 27 5 26 6l-6-1-11-2c-29-3-44-5-47-7l-12-1c-10 0-23-2-24-4h21zm-282 6c-4 5-14 5-18 1-1-2-1-2 2-1 6 1 12 2 14 0 4-2 4-2 2 0zm101 0l16 3 14 2h-11l-12-1h-6c-8 3-44 0-44-3 0-2 1-2 21-2l22 1zm273 0a240 240 0 0126 10l-10-1-30-9-5-1h8l11 1zm21 1h4l10 2a148 148 0 0032 4c3 0 3 1 3 3l-3 1-7-1h-5l5 1c5 2 9 4 5 3l-7-1-11-3-33-10-5-1h5l7 2zm-527 1l8 3c7 2 6 3-3 3h-8v-8l3 2zm179 1l4 1-5 1c-5 3-8 2-19 0-5-1-5-1-2-1l22-1zm262 3l9 2h-14l-14-1c-1-1 1-3 3-4l16 3zm-247 0c5 1 5 2-1 2-5 0-6 0-6-2 0-1 1-2 2-1l5 1zm395 0h-2 2zm-440 1c2 1 2 1 0 2h-16c-1-1 0-2 2-2h14zm353 1l-2 1-3-1 2-1 3 1z"/>
  <path d="M773 946l-27 5h33c12-3 39 6 42 14 0 1 1 2 3 1 2 0 3-3 1-6-1-2-17-11-24-13-4-2-18-2-28-1zM728 1006c-4 1-3 3 1 4l36 10c4 2 22 5 24 5v-1c0-2-3-3-11-4l-26-6c-4-1-5-2-5-4l-1-3-18-1zM906 1014h2-2z"/>
  <path d="M721 1021c-2 2-1 2 4 3a720 720 0 0136 6 102 102 0 0041-2c2 0 6-4 5-4l-13 1c-12 3-27 3-38 1a241 241 0 00-35-5zM977 944l-7 1c-9 0-14 1-17 4l-2 2 2 3 4 3c6 1 14 0 17-1l5-2 1-4c0-5-1-8-3-6zm-4 7c0 1-3 2-9 1-5 0-5 0-2-1 3-2 11-2 11 0zM1209 976c-1 2 1 5 3 6s4 0 4-2l-1-3c-1-2-5-2-6-1zM799 1060c-1 2 2 4 12 5 13 2 25 2 27 1 1-2-1-5-4-5-10 2-24 1-32-1h-3zM1181 1116l-14 5-1 7c2 9 7 13 18 14 15 1 23 3 35 7 9 3 12 2 11-2 0-1 1-2 3-2l5-1c2-1 2-1 2-5-1-3-1-4 1-4 4 0 3-2-2-5l-9-5c-5-3-5-3-16-3-9 0-11 0-12-2-2-3-15-6-21-4zm3 9l1 5 22 6 6 2c9 3 0 2-13-2l-15-3c-6-1-10-3-10-5-1-2 1-4 5-5h4v2zm40 3c2 0 2 2 3 4l-1 3a314 314 0 01-26-6l13 1c5 1 5 1 5-1 0-1 1-2 3-1h3zM660 1155l6 3 34 5c3 0 5-1 5-3l-8-2a193 193 0 01-32-3c-4-2-5-2-5 0zM726 899v4c0 2 0 3 3 3 2 1 2 0 3-2 1-4 0-6-3-6-1-1-3 0-3 1zM1257 903l-1 13c-1 7-1 7 1 8h2c2-2 3-14 1-21-1-7-4-8-3 0zM1012 906l-2 5-1 4c-3 4 2 6 6 3 1-1 4-12 3-14-1-3-3-2-6 2zM1074 904l-2 2-1 4c-2 3-2 6 1 9 2 2 2 3 4 1 2-1 2-2 2-7v-9c-1-2-3-2-4 0zM1333 905c-2 3-2 5-1 15 0 6 0 7 3 6s3-6 1-11c-2-4-2-5-1-9s0-5-2-1zM980 907c-2 5 0 10 5 9 2-1 3-1 2-4-1-4-3-7-5-7l-2 2zM1211 909v4l-2 4-2 4c0 3 3 7 5 7s3-1 2-5l2-3c2-2 2-5 0-9s-4-5-5-2zM1311 912v11l1 9v5c2 1 5-1 6-4s1-5-1-10l-3-9c0-2-2-3-3-2zM599 926l1 8c2 5 2 9 2 15-1 8 0 11 3 10 1-1 3-8 3-15 0-4-2-14-4-17 0-1-4-2-5-1zM1328 937l-8 17c-1 0-2 0-3-3-1-4-1-5-3-5-3 0-3 3-1 10 1 5 4 8 6 8 3 0 7-5 7-7l4-9 3-10c-1-4-3-5-5-1zM1284 944v11c-1 8 0 11 2 8l2-3 2-6c3-7 1-16-4-16-1 0-2 1-2 6zM615 959v8c0 6 0 7 2 7 3 1 4-2 4-9s0-7-3-7c-2-1-3 0-3 1zM632 970v27l-4-3c-6-9-6-9-8-7s-2 6 1 8l2 4 3 5c6 9 11 8 12-3l1-2-1-8v-14-6c-2-3-4-3-6-1zM1289 978c-1 1 0 3 2 5 3 4 3 7 1 9v20l-3 10c0 2 1 2 2 2s3-2 3-4l1-2c2 0 4-11 4-16v-11l-1-9c-2-4-3-5-6-5-2-1-3 0-3 1zM594 991v4l1 7c-1 3 0 7 1 10l1 5c-1 1 1 3 3 3 3 0 3-4 2-9-2-4-2-5-1-9v-8c-1-3-2-4-4-4-2-1-3 0-3 1zM1282 992l-2 3-1 6v7l2 4c3 0 7-17 5-20-1-2-3-2-4 0zM1331 1015v5c0 2 0 5-2 8-1 3-2 6-1 8 2 10 1 10 0 13-3 3-2 6 1 6 6 0 8-5 5-15v-8c3-12 4-13 2-15-1-3-4-3-5-2zM611 1017c-2 1-3 18-1 19 2 2 3 0 5-8v-10c-2-2-3-2-4-1zM623 1035v7c1 1 0 4-1 8-2 8-3 17-1 19 2 3 4 0 5-7l2-10c2-4 1-17-2-18l-3 1zM597 1049c-2 2-2 2-1 6l1 6c2 2 3 13 2 14-2 1 0 6 2 7h3v-20l-2-7-1-7-4 1zM1274 1052l1 5 2 4 1 4-1 2v7c1 4 3 3 7-5 2-4 2-4 0-8l-3-8c0-2 0-2-2-3-4-1-5-1-5 2zM1304 1057l-1 5-1 7c-3 6-3 7 1 13l3 6c0 2 5 4 7 3 2 0 6-10 7-19 1-4 0-5-1-5-3-1-5 1-6 6-2 6-2 6-5 4-2-2-2-4 1-8s2-9-1-11c-2-2-3-2-4-1zM1282 1085l-1 5v22c0 15 1 16 5 8 2-4 2-5 1-11s-1-7 1-10 2-4 1-7v-4c1-1-2-5-4-5l-3 2zM1318 1114c-2 4-2 5 0 8 1 2 1 2-1 6-3 3-7 10-7 12s3 4 4 3c2-1 4-5 4-7l3-4c3-3 3-3 3-11l-1-9c-1-3-4-1-5 2zM621 1113c-2 1-2 6 1 10 2 2 2 3 1 7l-2 5c-1 1-1 5 1 6h4l2-3 1-8v-10c-3-7-5-9-8-7zM595 1138v7c1 4 1 5-2 11l-3 12c0 10 4 16 6 10v-6c-1-4 0-8 3-14 2-3 3-5 2-15 0-5-1-8-4-8-1 0-2 1-2 3zM1278 1147v35 15l2 4c0 2 3 4 5 3 1 0 5-15 4-17l-2-1c-3 1-4-2-3-11l-1-12v-9c1-7-2-11-5-7zM608 1164c-1 1 0 14 2 15 1 3 4 2 4-1v-13c-1-2-5-2-6-1zM1323 1171l-1 6v5c-1 2 0 5 2 5l3-1c2-3 1-12 0-14-2-2-3-2-4-1zM959 1177l4 14c2 4 4 3 3-2l-1-9c0-3 0-4-3-4l-3 1zM716 1180c-1 1 0 11 1 13 2 2 5-1 5-5 0-5-3-9-6-8zM784 1181v13c2 2 4-1 5-6 1-8-1-11-5-7zM1025 1182c-1 0-2 2-2 6 0 6 1 8 3 8 1 0 3-4 4-9l-1-5h-4zM1110 1185c-3 4-5 8-3 9s0 15-3 22c-1 4 1 10 5 13 2 2 2 2 4 0l5-3 7-3 3-2-2-4c-1-3-2-6-1-7 0-2 0-3-2-4-3-1-5 1-4 4v5c-1 4-3 1-3-5l-1-5c-3 0-3-2 0-4 3-3 3-4 0-8v-4c2-2 2-5 1-6-1-2-2-2-6 2zM667 1184c-2 5 0 14 4 14 2 1 4-4 3-10-1-4-2-5-3-5-2-1-3 0-4 1zM631 1185l-2 4-2 3c-3 3-3 8 1 12 7 8 10 12 12 11 2 0 3-1 4-5l2-8c3-4 2-5-2-8-3-1-4 0-5 7l-2 3-2-4-3-4 3-5c3-2 3-4 1-6s-3-2-5 0zM1040 1185c0 3 1 3 3 3 2-1 2-5-1-5l-2 2zM1246 1186v2c2 2 2 4 0 7v8c1 6 1 7 3 6 1 0 2-1 2-4l2-6c4-4-3-17-7-13zM866 1189c-2 2-3 4-2 6 0 3 3 8 5 8 2 1 3-2 1-5-1-2-1-3 1-4 2-3 2-5 0-6-2-2-3-2-5 1zM1073 1191v8c0 4 2 4 4 0 3-5 2-13-2-13-1 0-2 2-2 5zM1158 1188v4c2 4 2 7 0 8-2 3-3 16-1 16l3-5 4-6c2-3 2-7 1-10l-2-5c0-3-4-5-5-2zM608 1194v5l-1 9c-2 4-2 5 0 9 3 5 4 6 6 4v-11-15c-2-3-4-3-5-1zM909 1195l-1 4-1 5c-1 2-1 3 1 4l2 1c2-1 4-9 3-12 0-3-3-5-4-2zM1185 1196c-1 3 1 8 4 13v5l-2 7c0 4 0 4 3 4h2l1-4 2-7v-6l-3-4-1-4c0-5-4-8-6-4zM756 1200l-2 5c0 4 1 4 3 4s2 0 3-4v-5c-1-2-3-2-4 0zM1051 1200c-1 1 0 2 1 3l1 7c0 5 1 6 2 5 3 0 4-10 2-14-2-3-5-3-6-1zM954 1205c-1 3 0 8 3 8 3 1 5-9 2-10s-4-1-5 2zM991 1204v13l2 1 2-6c0-5 0-6-2-8h-2zM1301 1204c-1 2 0 14 1 15l3-1c2-2 2-2 2-7-1-6-2-9-4-9l-2 2zM711 1206c-2 3-2 3 1 5 3 3 4 3 3 8v6c2 1 4-1 5-6 2-6 1-8-4-12l-4-4-1 3zM832 1208c0 5 1 5 3 5s2 0 2-2c0-5-1-8-3-8-1 0-2 1-2 5zM1022 1206l2 5v7c-1 7-1 8 1 8s5-7 5-11c0-7-8-15-8-9zM785 1205c-1 1-1 4 2 6 2 2 2 3 1 4-1 3-1 5 1 8 3 2 5 1 6-5 0-4-2-11-5-13h-5zM1073 1209l-1 4-1 7c-1 4-1 4 1 5 3 1 4 0 5-5l1-6c1-2-3-6-5-5zM682 1211l-2 6c-1 6 1 6 5 1 2-3 2-4 1-6-2-2-3-3-4-1zM384 1107l-3 3-5 4c-2 1-3 1-4-1-2-3-5-3-10 2l-6 5-5 3-3 1c-2 0-2 0 1-1l8-8c-1-2-3-2-7 1-5 4-6 4-6 2 0-3-2-5-4-5s-3 1-4 4l-6 7c-4 3-5 3-5 1l-2-3c-3-2-3-2-8 4l-6 7c0 2-2 7-5 9-2 2-2 2-4-1l-3-3-7-18c-2-2-2 3 0 7l3 9c2 4 1 4-2 10l-5 7c-2 1-2-1 2-6 3-2 3-4 2-4-2-2-3-2-6 3-3 3-3 3-4 1-1-3-4-3-6-1l-3 2-2 4c-3 20-6 24-13 25-4 1-5 1-6 3-1 3-2 2-3-2 0-2-1-3-3-3l-4-4c-2-3-3-3-6-3l-2-1c0-2-3-4-4-3l-3-1c-1-2-2-2-3-1-3 2-3 3 0 6 2 2 2 3 1 4v5l2 11c1 13 1 14-1 16s-2 7 1 10l2 3 4 1 2 1-1 5-4 10c-2 3-3 5-2 8l1 3c3 0 0 4-4 6-3 1-4 2-2 2l3-1c3-3 6-1 7 3 0 3 0 4 2 4 1-1 1 0 1 2-1 2 0 3 2 4 2 0 4 2 4 3 2 2 2 2 10 0l3-1-4 5c-4 5-4 7-2 12 3 6 6 8 14 10 9 2 17 2 25 1 7-2 21-5 23-7l2 1c0 3 6 8 9 9 5 1 19-1 29-5l10-4 5-1 17-9c2 1 5 6 5 10 0 2 5 4 9 4l3 2c2 2 4 2 7 2s4 1 5 3c0 1 1 2 3 1h6c4 0 4 1 4 2-1 4 4 5 15 2 2-1 2 0 3 1 0 2 1 2 3 2l14-2c1-1 1 1-2 3-4 4-4 5-2 7h3l12-7c2 0 3 0 1 1l-2 3c0 3 4 3 6 1l3-2 3-1 5-2c2 0 4 0 6-2 3-2 4-2 5-1 2 1 3 0 5-1l4-4h3c2 3 6 1 9-5 3-5 3-5 3-3 1 2 2 3 4 3s3 0 4-3l4-4 1-3 2-7 1-3 1 3 1 4c-1 0 4 2 5 1l1-8c-1-8-1-8 1-7 4 1 9-5 5-7-1-1-1-4 2-7 3-2 3-4 0-7l-2-7c-1-3-1-3 2-4s3-3 2-7v-4c3 0 4-6 2-7l-4-2-2-2 3-3c4-3 3-6-3-7-5-2-5-3-1-4 3 0 3-1 3-3 0-4-1-5-7-4l-6 1c-2-1 1-3 5-4 7-2 9-3 10-5 0-4-2-5-8-3-4 1-5 1-9-1l-4-3-6 3-6 4h-2l-1-3v-3l-3-1c-2-1-2-1 0-4v-4l-2-5c0-2-1-3-3-4-7-4-12-6-12-8-1-1 0-1 2-1l4 2c2 2 7 2 8-1 1-2-1-5-3-5l-16-6-5-2c-5-1-11-3-11-5l12 2c7 1 10 0 10-2 0-4-1-5-12-5-12-1-14-1-13-2v-3c-1-1-2-2-6-2-12 1-18 0-17-1l5-1c4 0 8-1 8-4 0-2-2-4-6-3-3 0-4 0-4-2-1-2-3-2-11 2l-9 3-1-2c-1-2-5-3-9-1l-2-1c0-3-2-3-11-1-9 3-9 3-7 1 1-2 0-3-1-4-2-3-3-3-7 0l-5 2-1-3c-1-2-3-3-6-2zm22 15c0 1-2 2-5 2-2 0-2 0 0-1 2-2 4-2 5-1zm-36 2c0 2-3 4-5 4s-2 0 1-2l4-2zm25 8l-6 4-7 4c-2 1-2 2-2 4s0 4-2 5c-2 2-2 2-2 0 0-3-2-3-4-1-2 1-3 0-1-2 1-3 10-10 17-15 6-3 6-3 7-1v2zm-40 2c-3 3-5 4-5 3 0-2 4-5 8-5l-3 2zm61-2l-8 5 4-3 4-2zm26 1l-18 9c-2-2 12-11 16-10l2 1zm-102 3c1 2 1 3-2 7-6 6-11 6-7-1l7-9 2 3zm85-2l-4 3-7 4-3 1 7-5 7-3zm-24 1c0 1-7 5-8 4l2-2 6-2zm46 0l-7 3 2-2 5-1zm-131 9l-2 1v-1l3-2-1 2zm121 3l-5 2 7-4-2 2zm29-1c-3 2-5 2-4 0l4-2c2 1 2 1 0 2zm-102 7l-7 15c-2 4-2 6-1 7l1 2c-1 2-3 1-9-1-3-1-3-3 1-3 3 0 3 0 9-12 6-11 7-12 6-8zm-91 1l-2 2s-1 0 0 0l1-3c1-2 1-2 1 1zm125 2l-3 5c-2 2-2 2-1 0l2-5c1-5 2-4 2 0zm34-2l-4 3-4 1 3-2c3-3 4-4 5-2zm-86 4l-3 8-2 4-1 1v-2l7-15-1 4zm137-1l-1 3c0 2-1 2-4 2-6 1-6-1-1-3 2-1 3-2 3-4l2-1c2 1 2 2 1 3zm-71 1l-3 3c-2 1-2 0 0-2l3-3v2zm-76 1l-1 2-1-2 1-2 1 2zm-8 3c2 4 2 5-1 6l-4 3-4 6c-3 2-6 8-5 9l3 1 6 3 4 2c2 0 4-5 3-7s-1-14 1-14l5 18 2 2c2 0 4 5 3 8s0 5 3 4c2-1 2 0 2 4 0 6 2 11 5 11l1 1 1 2 1 2-6 1-32 4c-3 1-2 2 1 2l3 2c0 2 1 2 2 2 2 0 2 1 0 7-1 3-6 5-10 4-5-2-7-4-6-7l2-7v-6c-2-2-2-3-5-2l-9 1c-6 1-7 2-8 5s2 5 7 9c4 3 7 6 7 8l-3 4c-2 2-4 2-7 2l-4 2c0 2 3 2 8 2 3 0 4 0 7-3 4-4 4-4 8-4 6 2 10 1 14-4 4-4 4-4 8-3l18 8 4 2h-4l-9 4c-4 3-7 4-9 4s-3 1-4 3c-2 4-1 4-4 2-1-2-2-2-5 0l-5 1-2 2c-1 3-5 4-8 2h-4c-1 2-3 2-2 0s-2-4-4-2c-2 1-2 1-3-1s-5-2-5-1c0 2-1 2-2-1l-3-2-3-1-3-2-3-1c-1-2 2-4 10-8 5-3 6-3 4-6l1-3c2 0 2-1 2-2-1-2-23-1-33 1s-10 2-10 0l-2-4c-3-3-2-4 3-1 9 4 10 1 3-7a63 63 0 01-13-31l-1-8c0-6 0-6 1-5l4 1 1 1 2 2 2 2 2 4c2 1 10 2 11 0 1-1 3 2 3 4l2 6 4 4c3 0 3-1-2-10-3-6-4-9-3-10 1-2 1-2 1 0l3 2c3 1 3 1 4 10 1 13 3 11 3-5l-1-13 4 4 3 4 2-2c2-2 3-3 1-6-1-4 0-5 3-1l4 2c2 0 6 6 11 16l3 4c2 0 3-2 1-5l-8-16 1 2h4c3-1 3-1 4 3 2 14 3 16 4 16 2 0 2-5 0-16l-1-6 3-4c6-5 12-13 12-14l3-5 2 3zm113 0c-2 2 0 5 3 6l6 2 3 1-5 1c-4 0-4 0-6-2-3-4-3-9 0-9l-1 1zm-46 10l-2 2c-1 0-1-3 1-6 1-1 2-2 2 0l-1 4zm34-4l-3 1h-3l6-1zm64 2c-1 2 1 4 3 4 3 0 4 2 3 3s-2 1-3-1c-2-1-4-2-9-2l-6-1h4c3 1 3 0 4-2 2-3 5-4 4-1zm-57 4l-3 1-9 2-7 1v-1l6-2c6-2 13-2 13-1zm24 4c2 1 2 3 2 3h-1l-3-3c-3 0-4-1-3-2 2-1 3-1 5 2zm-83-1l1 3-5 4-5 3 7-11 2 1zm11 5l-2 1v-4c2-2 2-2 2 0v3zm37 0l-3 1-5 2h-3l4-2c6-2 8-2 7-1zm-13 5c-1 2-19 14-20 13l20-15v2zm57 3l2 1 2 1-1 1v2c1 2-2 2-5-1l-2-3c0-2 3-2 4-1zm-58 8l-3 1v-1l3-1c2 0 2 1 0 1zm90 5l-2 1-3-1 3-1 2 1zm-128 2c1 1 1 2-1 2-2 2-4 2-4 0l3-4 2 2zm19 5v2c-1-3 0-6 1-6l-1 4zm87-1c1 2 0 2-1 1-2-2-2-4 0-3l1 2zm-45 3l-1 1c-2-1-2-4 0-3l1 2zm38 12l-1 1-4-8c0-2 5 5 5 7zm-53 4l-1-1-2-2h2l1 3zm25-1c0 1 0 2-1 1l-1-1v-1l2 1zm-93 1c-4 2-6 4-5 6v1c-3 1-18-4-18-5s10-2 22-2h1zm141 4v2c-2 2-3 1-4-3-1-3-1-3 1-1l3 2zm-116 1l-1 3c-1 0-2 0-1-2v-3c0-3 1-1 2 2zm64-2v2c-1 1-4-1-4-3 0-1 3-1 4 1zm-95 8l5 2-2 2h-5l-8-3-5-3 15 2zm100 0c2 2 2 3 0 3-2 2-2 1-3-3v-3l3 3zm74 0c-1 4-1 4-3 3-1-1 1-6 2-6l1 3zm-252 7c-8 5-10 8-9 10 1 1 3 0 9-4 13-9 18-10 6-1l-10 6c-2-1-2 0-2 3 1 2-1 2-5-2-3-2-4-4-4-5s-1-3-3-3c-3-2-3-4 0-5 6-2 11-2 17-2l7-1-6 4zm123-2c2 2 2 4-2 4-2 0-2 0-1-3s1-3 3-1zm42 5l1 2c-1 1-4-1-4-3 0-1 2-1 3 1zm40 4c-1 1-9-1-9-2l3-2c2-1 2-1 4 1l2 3zm46-3l-2 4-3 2 2-4c3-5 3-6 3-2zm-11 2l-2 2-1 2-1 1 1-4c3-4 5-5 3-1zm17 1c-1 4-4 5-4 2l2-2c1 0 2 0 2-2l1-1-1 3zm-70 3l-2 1c-1 0-1-2 1-4h2l-1 3zm-68 3l2 3c0 2-2 1-3-1 0-2-2-2-8-3-10-1-8-3 1-2 6 0 7 0 8 3zm148 0l-1 5c-2 1-2 1-1-2l1-4c1-2 1-2 1 1zm-29 6c-2 4-4 6-5 5l3-5 4-5-2 5zm-67 4c2 1 2 2-1 2l-8-3 9 1zm41 6l-6 1c-2 0-2 0 1-1l5-1c3 0 3 0 0 1zm-12 1l-17 4 6-2 4-2c0-1 1-2 3-1l4 1zm-205 1l-2 5c-3 3-3 3-4 1-2-3-2-5 1-6 4-2 5-2 5 0zm66 6l-1 4c0 2-1 3-3 3-3 1-5-2-4-4 1-1 6-5 8-5v2zm137 7h-6l8-2-2 2z"/>
  <path d="M239 1195v8l4 9 4 7c3 1 4-1 6-8 2-8 2-10-2-11l-7-3c-4-3-4-3-5-2zM315 1212c-7 3-8 4-7 6s5 2 10-1c4-2 6-4 5-7-1-1-1-1-8 2zM271 1222c-5 1-6 2-5 4 0 2 1 2 7 2l7-1 1-3c0-3-1-3-3-3l-7 1zM810 383c-3 2-5 5-5 11 0 7 2 10 6 10 6 1 10-3 11-11 0-4 0-5-2-7-2-3-7-4-10-3zm8 8c1 5-4 9-7 6-2-1-2-6-1-7l4-1 4 2zM1274 404l-34 3c-12 3-33 9-38 13l-6 3-6 7c-5 8-8 19-7 29l-1 7c-2 1-2 5 0 6s2 5 3 24l2 26 2 25a198 198 0 0011 51 921 921 0 0124 22l9 2 23 5 10 1c15 4 81 7 111 7 15-1 41-10 45-17 3-4 5-15 6-30l1-8c1-4 0-63-1-81-3-38-12-70-19-73l-6-4-5-4h-2c-1-1-10-5-17-6l-16-3-18-2a615 615 0 00-71-3zm54 9l30 2c27 2 40 8 50 22 7 10 7 14 10 49l1 11 1 11 2 15a592 592 0 01-2 76l-3 6c-2 9-8 13-17 16a1085 1085 0 01-133 0c-8-1-42-10-46-12-5-3-14-18-18-30l-2-6a396 396 0 01-10-122l1-11 7-7c8-7 18-12 26-14l11-4c17-4 59-5 92-2z"/>
  <path d="M1378 455l-8 10-10 11-16 18c-13 13-14 15-21 25l-6 6-1-2c-1-3-9-1-10 3s-5 9-7 9-4-3-3-5c1-1-2-4-4-4-3 0-7 4-6 5l-2 5-6 10c-4 8-5 9-10 3-3-3-5-6-5-8 0-4-1-4-5-1-3 1-4 3-4 5 0 3-14 27-16 26a692 692 0 01-1-77c0 2 1 2 3 2 4 0 4-2 0-8-5-8-8-14-7-16 1-1-2-4-4-4s-4 4-4 8c1 4-3 16-5 20-3 4-3 5-1 5 2 1 5-2 6-7l2-5c2-3 2 4 3 38a1451 1451 0 000 58c-2 2-2 5 0 6a469 469 0 00114-1 1205 1205 0 0030-1c0 1-4 6-9 9l-5 3c-1 2 0 5 2 5s3-1 10-8c3-3 4-4 8-3 8 1 10-6 3-14-5-5-13-8-23-9-6-1-7-1-6 1l4 3 15 6-16 2-44 2h-66c-8-1-9-1-9-3l2-6a149 149 0 0114-21l3-4 2-3 3 2 6 8 5 4c2 0 5-3 5-5l1-2 2-4 9-15 4 3c5 5 7 4 13-3 2-3 3-4 6-3 4 1 7-1 10-6 8-14 20-28 32-38 7-5 10-8 10-10l5-6 7-8c1-3 4-5 5-6 5-3 5-10 1-10-2 0-3 2-5 5zM838 428c-5 6-3 17 4 18 5 1 7-1 9-6 2-7-1-13-7-14-3-1-4 0-6 2zm9 6c1 2-1 7-3 7-2 1-5-4-4-6 2-3 6-3 7-1zM875 462c-5 3-6 14-2 18l5 2c5 1 10-8 9-16-1-3-1-4-4-4-4-2-6-2-8 0zm8 7c0 8-7 10-7 3-1-4 2-8 5-8 2 0 2 1 2 5zM75 480c0 1-1 2-3 2s-4 3-4 6c1 3-1 2-3-2s-2-4-9-4l-6 1h-3c-2 0-2 1-1 4 0 2 0 4-2 6l-1 11 1 7-3 1-6 3c-3 2-3 2-2 6l1 6-3 12c-1 2-15 2-19 0l-6 1c-4 2-5 5-4 19l-1 27c-2 16-2 17 4 16h18l14 1 1 2 3 8 4 12c3 14 5 17 24 38 5 5 7 8 11 9l11 4c16 6 21 8 25 8 5-1 14-5 20-9l8-5 12-8c5-4 12-9 17-11 14-9 20-18 25-39l2-8 18-1a3848 3848 0 0194-1c5 1 8 0 8-3l1-2c2 0 2-17 1-41-1-16-2-17-12-17-12 0-17 6-13 13 2 2 3 4 3 11v9h-6a2352 2352 0 01-77 4l-17 1v-3l-1-7-2-7-2-8c-1-6-5-16-11-29-5-10-6-12-10-12-6 1-6 1-5-7v-6l-3-2c-2-1-4-2-4-4l-3-6c-2-3-3-3-14-3-12-1-12-1-14 2l-2 5c0 3 0 3-2 1l-2-5-3-5c-3-1-4-2-15-1-12 1-13 1-14 7-1 5-4 6-4 2s-1-6-5-6c-2 0-3 0-2-2 0-1 0-2-2-3-3-1-4-1-5 2zm2 8l4 1c4 0 5 2 3 3H74c-2-1-2-5 0-5l3 1zm37 1c-2 2-15 2-15 0l9-1 6 1zm26 2c0 3-1 3-4 2-1-2 0-4 2-4s2 1 2 2zm20 1c0 2 0 2-3 2-2 0-2-1 0-2 1-2 2-2 3 0zm-38 6l2 6c1 4 1 4-1 4h-3c-1-1-3-2-15-4l-9 1c-3 1-4 0-3-3s2-3 8-4h13c6-2 6-2 8 0zm-34 1v2l-2 3-4 9H69l-15 1c-2 0-2-1-4-11l-1-4 16-1 23 1zm72 3c2 0 2 1 2 6l-1 6-13 1c-14 0-15-1-15-6l-2-5c-2-4-1-4 13-4l16 2zm-42 12c3 1 6 4 9 11 2 4 2 9-1 13l-2 6c-1 3-7 5-16 5l-9-1h-2l-2-1-4-2c-3-2-5-5-4-13 0-7 1-9 4-15 2-3 3-3 10-4 8-1 10-1 17 1zm-76 5l-1 2-3 1c-2 1-2-2 0-3 3-2 4-2 4 0zm128 3c0 2-1 2-2 0-1-1 0-4 1-3l1 3zm4 12a187 187 0 017 37c1 4 1 4-2 4l-4 1-4 1c-2 0-2 0-3-8l-2-16c-1-8 0-19 2-21 1-3 5-1 6 2zM34 563c0 10-1 14-3 14-3 0-4-4-3-12 1-17 2-20 4-15l2 13zm280-12l-3 3v-2c1-2 3-2 3-1zM63 574l33 1a2469 2469 0 0164 1v2a7682 7682 0 01-108 0l-1-4c0-3 0-4 1-3l11 3zm169 8c-2 2-3 2-3 1l4-2-1 1zm-220 1l-3 3-3 1 6-4zm146 2c-2 2-3 2-3 0l3-1c1 0 2 1 0 1zm-136 2l-8 3 3-2c5-3 6-3 5-1zm216 3c-1 2-2 2-3 2l1-2 4-1-2 1zm-80 3c-2 2-4 2-6 2s-2 0 2-2c5-3 7-3 4 0zm-88 0c0 2 4 2 7 1l5-2 3-1-3 2c-1 2-3 2-10 2h-9l2-2c3-2 5-2 5 0zm134 2l-1 1c-2 0-2 0-1-1l2-2v2zm-104 8h15c2-1 43-2 59-1l9 1v3c0 4-3 14-6 19-7 10-19 19-31 22l-13 2-13 2-17 1c-20-1-21-1-26-4l-9-12c-5-12-7-14-10-15-2 0-3-2-5-7-4-9-4-11-2-12l49 1z"/>
  <path d="M99 518c-3 1-8 7-8 9 0 5 3 12 5 12l4 3c9 7 18 5 25-5l1-6c0-4 0-5-3-7-5-6-19-9-24-6zm14 9c2 3 1 5-2 6-5 1-8-4-4-5l2-2c0-1 2-1 4 1zM1152 497c-4 2-8 6-8 9s6 8 10 8l3-1 3-3c4-6 3-15-3-15l-5 2zm5 6c0 3-2 6-4 5s-2-5 0-6c3-2 4-2 4 1zM1738 497c-2 2-2 3-1 11 2 6 2 10 1 59a612 612 0 01-3 49c-2 5-2 5 7 5l15 1 145 2c15-1 26 1 35 3 1 0 3 0 5-2a1419 1419 0 011-115c0-5-1-8-6-7l-16-1-55-2a47871 47871 0 01-124-3c-1-2-2-2-4 0zm28 10l-4 1-6 1-4-1c-2-2-2-2 6-2l8 1zm61-1h-3 3zm19 1h-5 5zm49 1c1 1 0 1-3 1l-6-1h9zm33 1l4 2c1 1-1 2-5 3-5 0-28-4-29-6h12l18 1zm-96 3a512 512 0 0190 7c2 0 2 1 2 43 0 38 0 42-2 43h-20l-33 1a464 464 0 01-70-3c-33-1-41-2-43-4l-2-2a743 743 0 002-73l2-8c0-2 0-2 12-4h62zm-83 2c3 2 3 2 3 5-3 17-4 78-2 81 1 1 1 2-2 4l-4 3a559 559 0 010-95l5 2zm188 22v77l-4-3-4-3v-85l3-2 3-3 2 19zm-162 71a582 582 0 0061 3l51 1h37l3 2 2 3-84 1a695 695 0 01-100-3l10-7h20z"/>
  <path d="M1832 523c-28 8-58 27-58 39 0 4 2 4 4 0 2-8 18-21 33-28 10-4 23-9 29-9 8-1 11-1 10-3-1-1-10-1-18 1zM1891 527c-6 0-10 2-10 4h6l11-2 14-1c5-1 7-1 6-2s-19-1-27 1z"/>
  <path d="M1850 530l-7 2c-12 3-18 6-27 10-10 5-17 10-17 12 0 1 5 0 8-2l10-7 7-4 16-6 13-5h-3zM1867 558a5380 5380 0 01-63 16 4170 4170 0 0170-17l-7 1zM1894 562a189 189 0 01-15 7c-25 12-52 17-80 16l-13 1 5 3c5 1 32 0 45-3a206 206 0 0069-27c3-3 1-2-11 3zM1116 505c-4 4-4 8-2 12 2 3 3 3 6 3 4 0 7-3 8-8 1-3 0-4-2-6l-4-3-2-1c0-1-1-1-4 3zm6 5c2 2 1 4-1 4s-3-1-2-4c1-2 2-2 3 0zM1082 512c-3 4-6 11-5 14l5 6c5 1 11-6 11-12 0-3-4-10-7-11l-4 3zm5 5c2 2 2 5 1 7-4 5-8 1-5-5 2-4 3-4 4-2zM697 618c-2 6-2 25-1 27h3l1-10 1-13-1-4c-1-2-3-2-3 0zM718 645l-1 10c1 4 0 10-1 13-2 7-1 10 1 10s3-3 4-8l2-7v-7l-1-7c0-7-2-8-4-4zM696 682v7l-1 11c-2 4-2 9 1 11l3 1 1-5v-12c1-5 0-12-1-14-1-1-2-1-3 1z"/>
</svg>
