<?xml version="1.0" encoding="UTF-8"?>
<svg viewBox="0 0 175 42" version="1.1" xmlns="http://www.w3.org/2000/svg" xmlns:xlink="http://www.w3.org/1999/xlink">
    <!-- Generator: Sketch 44.1 (41455) - http://www.bohemiancoding.com/sketch -->
    <title>Voog logo blue</title>
    <desc>Created with Sketch.</desc>
    <defs></defs>
    <g id="Symbols" stroke="none" stroke-width="1" fill="none" fill-rule="evenodd">
        <g id="Voog-logo-blue" fill-rule="nonzero" fill="currentColor">
            <path d="M174.283,20.941 L174.283,20.943 C174.283,21.136 174.26,21.326 174.254,21.519 C174.219,22.84 174.059,24.13 173.795,25.382 L173.748,25.381 C171.711,34.814 163.33,41.884 153.287,41.884 C147.506,41.884 142.269,39.541 138.48,35.751 L138.515,35.715 C138.486,35.689 138.454,35.661 138.425,35.631 C134.702,31.851 132.4,26.667 132.4,20.941 C132.4,9.376 141.775,0 153.342,0 C159.125,0 164.362,2.343 168.151,6.133 L164.424,9.86 C161.588,7.022 157.67,5.268 153.342,5.268 C144.686,5.268 137.668,12.287 137.668,20.942 C137.668,24.62 138.943,27.993 141.063,30.667 C141.44,31.14 141.85,31.583 142.278,32.008 L142.233,32.052 C145.067,34.874 148.973,36.618 153.288,36.618 C161.046,36.618 167.47,30.977 168.726,23.579 L153.21,23.579 L153.21,18.306 L168.778,18.306 L172.249,18.306 L174.101,18.306 C174.209,19.172 174.283,20.047 174.283,20.941 M64.34,0.001 L64.34,5.27 C72.998,5.27 80.014,12.288 80.014,20.944 C80.014,29.6 72.998,36.617 64.34,36.617 C55.684,36.617 48.664,29.599 48.664,20.943 L43.396,20.943 C43.396,32.508 52.773,41.884 64.339,41.884 C75.905,41.884 85.282,32.508 85.282,20.943 C85.283,9.377 75.906,0.001 64.34,0.001 M37.906,12.331 L27.861,33.529 C27.054,35.275 25.588,36.55 24.318,36.591 L24.121,36.592 C22.885,36.567 21.406,35.286 20.592,33.53 L5.809,1.501 L0,1.501 L15.811,35.738 C17.581,39.57 20.702,41.859 24.159,41.859 L24.296,41.859 C27.753,41.859 30.876,39.57 32.644,35.74 L42.636,14.668 L42.634,14.668 C45.054,9.135 50.577,5.27 57.003,5.27 L57.003,0.001 C48.504,0.001 41.189,5.061 37.906,12.331 M108.768,0 C97.201,0 87.824,9.376 87.824,20.943 C87.824,32.507 97.201,41.883 108.767,41.883 C120.333,41.883 129.708,32.507 129.708,20.943 C129.709,9.376 120.334,0 108.768,0 M108.768,36.564 C100.139,36.564 93.145,29.57 93.145,20.943 C93.145,12.314 100.139,5.318 108.768,5.318 C117.395,5.318 124.389,12.314 124.389,20.943 C124.389,29.57 117.395,36.564 108.768,36.564" id="Shape"></path>
        </g>
    </g>
</svg>
