<svg viewBox="0 0 668 152" fill="none" xmlns="http://www.w3.org/2000/svg">
<path fill-rule="evenodd" clip-rule="evenodd" d="M33.3 76.362C33.3 58.31 43.081 51.882 52.231 51.882C63.46 51.882 71.004 61.648 71.004 76.194C71.004 92.784 61.407 100.195 51.915 100.195C39.116 100.195 33.3 87.827 33.3 76.362ZM56.74 30.644C43.389 30.644 35.66 36.699 31.932 40.878C31.484 37.275 29.133 32.6 19.949 32.6H0V53.671H8.176C9.562 53.671 10.009 54.114 10.009 55.513V151.73H33.783V115.618C33.783 114.644 33.765 113.732 33.739 112.918C37.449 116.352 44.546 121.098 55.626 121.098C78.864 121.098 95.12 102.506 95.12 75.875C95.12 48.82 79.689 30.644 56.74 30.644" fill="currentColor"/>
<path fill-rule="evenodd" clip-rule="evenodd" d="M127.046 96.396V45.41C127.046 36.796 122.932 32.6 114.502 32.6H93.255V53.67H101.439C102.817 53.67 103.264 54.122 103.264 55.512V106.321C103.264 115.068 107.247 119.131 115.782 119.131H137.055V98.247H128.871C127.555 98.247 127.046 97.715 127.046 96.397" fill="currentColor"/>
<path fill-rule="evenodd" clip-rule="evenodd" d="M184.306 100.195C171.542 100.195 165.699 87.827 165.699 76.362C165.699 58.31 175.481 51.882 184.639 51.882C195.868 51.882 203.412 61.648 203.412 76.194C203.412 92.784 193.824 100.195 184.306 100.195V100.195ZM189.156 30.644C175.788 30.644 168.076 36.699 164.331 40.878C163.892 37.275 161.55 32.6 152.365 32.6H132.408V53.671H140.584C141.961 53.671 142.408 54.114 142.408 55.513V151.73H166.2V115.618C166.2 114.644 166.174 113.732 166.148 112.918C169.841 116.352 176.964 121.098 188.035 121.098C211.282 121.098 227.52 102.506 227.52 75.875C227.52 48.82 212.098 30.644 189.158 30.644H189.156ZM254.326 63.386C256.905 54.896 263.352 50.079 272.266 50.079C279.424 50.079 284.933 55.577 285.906 63.386H254.326ZM272.266 30.646C246.65 30.646 228.736 49.247 228.736 75.878C228.736 102.075 248.062 121.1 274.696 121.1C295.644 121.1 308.443 108.582 308.986 108.05L309.943 107.095L299.583 89.751L298.047 91.221C297.942 91.301 288.547 100.038 276.134 100.038C264.221 100.038 255.501 92.699 253.44 81.19H309.82L309.952 79.614C309.996 79.401 310.46 74.294 310.46 71.796C310.46 47.184 295.109 30.646 272.265 30.646H272.266ZM354.535 100.195C343.227 100.195 335.911 90.642 335.911 75.875C335.911 61.515 343.526 51.883 354.86 51.883C367.711 51.883 373.475 63.843 373.475 75.716C373.475 93.776 363.685 100.196 354.535 100.196V100.195ZM396.932 96.397V12.831C396.932 4.21699 392.765 0.0209961 384.221 0.0209961H362.974V21.1H371.159C372.536 21.1 372.983 21.543 372.983 22.941V38.045C369.475 34.849 362.623 30.644 350.824 30.644C327.753 30.644 311.655 49.244 311.655 75.875C311.655 102.931 327.077 121.098 350.026 121.098C363.141 121.098 370.703 114.954 374.396 110.668C374.878 114.405 377.273 119.132 386.168 119.132H406.766V98.247H398.756C397.441 98.247 396.932 97.717 396.932 96.397V96.397ZM459.672 31.457C449.777 31.457 440.671 37.221 435.267 46.402V44.427C435.267 36.583 430.977 32.599 422.556 32.599H402.116V53.67H410.292C411.669 53.67 412.125 54.113 412.125 55.512V119.132H435.9V84.506C435.9 79.946 436.479 75.556 437.601 71.492C441.181 59.549 450.69 55.299 458.383 55.299C461.112 55.299 463.094 55.591 463.129 55.6L465.112 55.901V32.051L463.664 31.803C463.594 31.785 461.577 31.457 459.673 31.457H459.672ZM498.951 96.396V45.41C498.951 36.796 494.855 32.6 486.424 32.6H467.204V53.67H473.344C474.731 53.67 475.169 54.122 475.169 55.512V106.321C475.169 115.068 479.161 119.131 487.714 119.131H508.97V98.247H500.776C499.46 98.247 498.951 97.715 498.951 96.397" fill="currentColor"/>
<path fill-rule="evenodd" clip-rule="evenodd" d="M588.708 32.601H576.023C568.61 32.601 564.636 35.195 562.285 41.561L546.785 85.251C546.249 86.871 545.749 88.687 545.319 90.431C544.872 88.687 544.337 86.845 543.749 85.225L528.248 41.552C525.871 35.116 522.028 32.602 514.519 32.602H501.027V53.672H504.527C506.387 53.672 506.984 54.309 507.422 55.478L531.415 119.133H558.153L582.146 55.478C582.584 54.309 583.199 53.672 585.058 53.672H588.708V32.602V32.601ZM611.71 63.386C614.316 54.896 620.738 50.079 629.642 50.079C636.818 50.079 642.318 55.577 643.292 63.386H611.71V63.386ZM629.642 30.646C604.035 30.646 586.13 49.247 586.13 75.878C586.13 102.075 605.438 121.1 632.072 121.1C653.029 121.1 665.837 108.582 666.372 108.05L667.337 107.095L657.003 89.751L655.423 91.221C655.345 91.301 645.897 100.038 633.528 100.038C621.606 100.038 612.886 92.699 610.825 81.19H667.223L667.354 79.614C667.381 79.401 667.864 74.294 667.864 71.796C667.864 47.184 652.503 30.646 629.642 30.646ZM125.42 0.026001H104.225V22.558H125.42V0.026001ZM497.336 0.026001H476.133V22.558H497.336V0.026001Z" fill="currentColor"/>
</svg>
